<?xml version="1.0" encoding="UTF-8" standalone="no"?>
<!DOCTYPE svg PUBLIC "-//W3C//DTD SVG 1.1//EN" "http://www.w3.org/Graphics/SVG/1.1/DTD/svg11.dtd">
<svg xmlns="http://www.w3.org/2000/svg" xmlns:xlink="http://www.w3.org/1999/xlink" version="1.1" width="366pt" height="365pt" viewBox="0 0 366 365">
<g enable-background="new">
<path transform="matrix(1,0,0,-1,0,365)" d="M 332.691 112.999 L 308.691 136.999 L 308.691 201.292 C 308.691 262.671 264.797 313.792 206.691 324.999 L 206.691 340.999 C 206.691 354.234 195.926 364.999 182.691 364.999 C 169.457 364.999 158.691 354.234 158.691 340.999 L 158.691 324.999 C 100.582 313.792 56.691 262.671 56.691 201.292 L 56.691 136.999 L 32.691 112.999 L 32.691 80.999 L 8.691 80.999 L 8.691 56.999 L 356.691 56.999 L 356.691 80.999 L 332.691 80.999 Z M 332.691 112.999 "/>
<path transform="matrix(1,0,0,-1,0,365)" d="M 182.691 .999 C 205.027 .999 224.305 14.081 233.293 32.999 L 132.086 32.999 C 141.074 14.081 160.352 .999 182.691 .999 Z M 182.691 .999 "/>
<path transform="matrix(1,0,0,-1,0,365)" d="M 341.809 231.718 L 365.383 236.23 C 360.258 263.019 349.004 288.87 332.844 310.991 C 316.781 332.968 295.73 351.472 271.965 364.499 L 260.43 343.452 C 303.027 320.105 332.688 279.382 341.809 231.718 Z M 341.809 231.718 "/>
<path transform="matrix(1,0,0,-1,0,365)" d="M 104.953 343.452 L 93.418 364.499 C 69.652 351.472 48.598 332.968 32.539 310.991 C 16.379 288.87 5.125 263.019 0 236.23 L 23.57 231.718 C 32.691 279.382 62.355 320.105 104.953 343.452 Z M 104.953 343.452 "/>
</g>
</svg>
