<svg xmlns="http://www.w3.org/2000/svg" xmlns:xlink="http://www.w3.org/1999/xlink" viewBox="0 0 160 256"><defs><style>.cls-1{fill:none;}.cls-2{clip-path:url(#clip-path);}.cls-3{fill:#1d1d1b;}</style><clipPath id="clip-path"><rect class="cls-1" width="160" height="256"/></clipPath></defs><g id="Camada_2" data-name="Camada 2"><g id="Camada_1-2" data-name="Camada 1"><g class="cls-2"><path class="cls-3" d="M128,0H32A32,32,0,0,0,0,32V224a32,32,0,0,0,32,32h96a32,32,0,0,0,32-32V32A32,32,0,0,0,128,0M64,208H32V176H64Zm64,0H96V176h32ZM80,144a48,48,0,1,1,48-48,48,48,0,0,1-48,48"/><path class="cls-3" d="M112,96A32,32,0,1,1,80,64a32,32,0,0,1,32,32"/></g></g></g></svg>