<?xml version="1.0" encoding="UTF-8" standalone="no"?>
<!DOCTYPE svg PUBLIC "-//W3C//DTD SVG 1.1//EN" "http://www.w3.org/Graphics/SVG/1.1/DTD/svg11.dtd">
<svg xmlns="http://www.w3.org/2000/svg" xmlns:xlink="http://www.w3.org/1999/xlink" version="1.1" width="25pt" height="21pt" viewBox="0 0 25 21">
<g enable-background="new">
<path transform="matrix(1,0,0,-1,0,21)" d="M 21.453 7.863 L 24.34 16.5 C 24.484 16.914 24.375 17.164 24.258 17.328 C 23.961 17.75 23.344 17.754 23.227 17.754 L 6.918 17.758 L 6.48 19.82 C 6.363 20.309 6.016 20.774 5.316 20.774 L .734 20.774 C .258 20.774 0 20.551 0 20.106 L 0 18.914 C 0 18.485 .258 18.375 .75 18.375 L 4.621 18.375 L 7.582 5.801 C 7.109 5.301 6.855 4.574 6.855 3.899 C 6.855 2.406 8.043 1.031 9.559 1.031 C 10.992 1.031 12.066 2.375 12.238 3.172 L 18.008 3.172 C 18.18 2.375 19.051 1 20.688 1 C 22.176 1 23.391 2.293 23.391 3.781 C 23.391 5.262 22.488 6.574 20.703 6.574 C 19.957 6.574 19.078 6.172 18.668 5.574 L 11.578 5.574 C 11.066 6.375 10.363 6.621 9.652 6.649 L 9.555 7.172 L 20.336 7.172 C 21.152 7.172 21.309 7.469 21.453 7.863 Z M 20.707 4.828 C 21.266 4.828 21.723 4.375 21.723 3.813 C 21.723 3.25 21.266 2.797 20.707 2.797 C 20.145 2.797 19.691 3.25 19.691 3.813 C 19.691 4.375 20.145 4.828 20.707 4.828 Z M 10.562 3.813 C 10.562 3.246 10.102 2.785 9.539 2.785 C 8.969 2.785 8.508 3.246 8.508 3.813 C 8.508 4.379 8.969 4.84 9.539 4.84 C 10.102 4.84 10.562 4.379 10.562 3.813 Z M 10.562 3.813 "/>
</g>
</svg>
