<?xml version="1.0" encoding="UTF-8" standalone="no"?>
<!DOCTYPE svg PUBLIC "-//W3C//DTD SVG 1.1//EN" "http://www.w3.org/Graphics/SVG/1.1/DTD/svg11.dtd">
<svg xmlns="http://www.w3.org/2000/svg" xmlns:xlink="http://www.w3.org/1999/xlink" version="1.1" width="512pt" height="512pt" viewBox="0 0 512 512">
<g enable-background="new">
<path transform="matrix(1,0,0,-1,0,512)" d="M 211 226 C 211 201.188 231.188 181 256 181 C 280.812 181 301 201.188 301 226 C 301 250.812 280.812 271 256 271 C 231.188 271 211 250.812 211 226 Z M 211 226 "/>
<path transform="matrix(1,0,0,-1,0,512)" d="M 256 151 C 206.371 151 166 110.629 166 61 L 166 0 L 346 0 L 346 61 C 346 110.629 305.629 151 256 151 Z M 256 151 "/>
<path transform="matrix(1,0,0,-1,0,512)" d="M 136 196 C 136 220.812 115.812 241 91 241 C 66.188 241 46 220.812 46 196 C 46 171.188 66.188 151 91 151 C 115.812 151 136 171.188 136 196 Z M 136 196 "/>
<clipPath id="cp0">
<path transform="matrix(1,0,0,-1,0,512)" d="M .06 512 L 512 512 L 512 0 L .06 0 Z "/>
</clipPath>
<g clip-path="url(#cp0)">
<path transform="matrix(1,0,0,-1,0,512)" d="M 466 196 C 466 220.812 445.812 241 421 241 C 396.188 241 376 220.812 376 196 C 376 171.188 396.188 151 421 151 C 445.812 151 466 171.188 466 196 Z M 466 196 "/>
<path transform="matrix(1,0,0,-1,0,512)" d="M 76 512 L 53.18 458.199 L 0 450.699 L 38.355 414.266 L 29.535 361 L 76 385.285 L 122.465 361 L 113.645 414.266 L 151 450.699 L 99.379 458.199 Z M 76 512 "/>
</g>
<path transform="matrix(1,0,0,-1,0,512)" d="M 279.379 458.199 L 256 512 L 233.18 458.199 L 181 450.699 L 218.355 414.266 L 209.535 361 L 256 385.285 L 302.465 361 L 293.645 414.266 L 331 450.699 Z M 279.379 458.199 "/>
<path transform="matrix(1,0,0,-1,0,512)" d="M 436 512 L 413.18 458.199 L 361 450.699 L 398.355 414.266 L 389.535 361 L 436 385.285 L 482.465 361 L 473.645 414.266 L 512 450.699 L 459.379 458.199 Z M 436 512 "/>
<clipPath id="cp1">
<path transform="matrix(1,0,0,-1,0,512)" d="M .06 512 L 512 512 L 512 0 L .06 0 Z "/>
</clipPath>
<g clip-path="url(#cp1)">
<path transform="matrix(1,0,0,-1,0,512)" d="M 421 121 C 401.062 121 382.816 114.309 367.902 103.34 C 372.922 90.125 376 75.953 376 61 L 376 0 L 512 0 L 512 31 C 512 80.707 470.707 121 421 121 Z M 421 121 "/>
<path transform="matrix(1,0,0,-1,0,512)" d="M 0 31 L 0 0 L 136 0 L 136 61 C 136 75.953 139.078 90.125 144.098 103.34 C 129.184 114.309 110.938 121 91 121 C 41.293 121 0 80.707 0 31 Z M 0 31 "/>
</g>
</g>
</svg>
