<?xml version="1.0" encoding="UTF-8" standalone="no"?>
<!DOCTYPE svg PUBLIC "-//W3C//DTD SVG 1.1//EN" "http://www.w3.org/Graphics/SVG/1.1/DTD/svg11.dtd">
<svg xmlns="http://www.w3.org/2000/svg" xmlns:xlink="http://www.w3.org/1999/xlink" version="1.1" width="448pt" height="512pt" viewBox="0 0 448 512">
<g enable-background="new">
<clipPath id="cp0">
<path transform="matrix(1,0,0,-1,0,512)" d="M .06 512 L 448 512 L 448 0 L .06 0 Z "/>
</clipPath>
<g clip-path="url(#cp0)">
<path transform="matrix(1,0,0,-1,0,512)" d="M 235.605 308.48 L 235.605 282.738 C 235.605 274.562 237.238 267.703 240.461 262.359 C 244.906 254.984 252.203 250.758 260.488 250.758 C 268.605 250.758 276.672 254.711 284.461 262.5 L 369.484 347.523 C 388.152 366.191 388.152 396.566 369.484 415.234 L 284.461 500.258 C 276.672 508.051 268.605 512 260.488 512 C 248.102 512 235.605 502.109 235.605 480.02 L 235.605 456.641 C 114.895 449.512 14.965 356.875 .113 235.59 C -.719 228.816 3.133 222.332 9.48 219.82 C 11.277 219.109 13.148 218.766 14.996 218.766 C 19.676 218.766 24.215 220.957 27.105 224.906 C 66.941 279.336 130.902 311.832 198.199 311.832 C 210.668 311.832 223.207 310.707 235.605 308.48 Z M 235.605 308.48 "/>
<path transform="matrix(1,0,0,-1,0,512)" d="M 438.254 292.18 C 431.906 294.695 424.664 292.602 420.629 287.09 C 380.797 232.664 316.836 200.168 249.539 200.168 C 237.07 200.168 224.531 201.293 212.133 203.52 L 212.133 229.262 C 212.133 251.352 199.633 261.242 187.25 261.242 C 179.133 261.242 171.066 257.289 163.273 249.496 L 78.25 164.477 C 59.586 145.809 59.586 115.434 78.254 96.762 L 163.273 11.742 C 171.066 3.949 179.133 0 187.25 0 C 199.633 0 212.133 9.891 212.133 31.98 L 212.133 55.359 C 332.848 62.488 432.773 155.125 447.625 276.406 C 448.457 283.184 444.605 289.668 438.254 292.18 Z M 438.254 292.18 "/>
</g>
</g>
</svg>
