<?xml version="1.0" encoding="utf-8"?>
<!-- Generator: Adobe Illustrator 24.2.0, SVG Export Plug-In . SVG Version: 6.00 Build 0)  -->
<svg version="1.1" id="Camada_1" xmlns="http://www.w3.org/2000/svg" xmlns:xlink="http://www.w3.org/1999/xlink" x="0px" y="0px"
	 viewBox="0 0 101.5 64" style="enable-background:new 0 0 101.5 64;" xml:space="preserve">
<style type="text/css">
	.st0{enable-background:new    ;}
</style>
<g class="st0">
	<path d="M56.6,61.6l42.4-42.5c1.7-1.6,2.5-3.5,2.5-5.9c0-2.3-0.8-4.3-2.5-5.9l-4.9-5C92.6,0.8,90.6,0,88.3,0
		c-2.3,0-4.2,0.8-5.9,2.4L50.8,34.1L19.1,2.4C17.5,0.8,15.5,0,13.2,0C11,0,9,0.8,7.3,2.4l-4.9,5C0.8,9,0,10.9,0,13.2
		c0,2.3,0.8,4.3,2.4,5.9l42.4,42.5c1.7,1.6,3.7,2.4,5.9,2.4C53.1,64,55,63.2,56.6,61.6z"/>
</g>
</svg>
