<?xml version="1.0" encoding="UTF-8" standalone="no"?>
<!DOCTYPE svg PUBLIC "-//W3C//DTD SVG 1.1//EN" "http://www.w3.org/Graphics/SVG/1.1/DTD/svg11.dtd">
<svg xmlns="http://www.w3.org/2000/svg" xmlns:xlink="http://www.w3.org/1999/xlink" version="1.1" width="342pt" height="342pt" viewBox="0 0 342 342">
<g enable-background="new">
<clipPath id="cp0">
<path transform="matrix(1,0,0,-1,0,342)" d="M 0 341.333 L 341.333 341.333 L 341.333 .05999756 L 0 .05999756 Z "/>
</clipPath>
<g clip-path="url(#cp0)">
<path transform="matrix(1,0,0,-1,0,342)" d="M 256 0 L 341.333 0 L 341.333 85.333 L 256 85.333 Z M 256 128 L 341.333 128 L 341.333 213.33301 L 256 213.33301 Z M 128 256 L 213.33301 256 L 213.33301 341.333 L 128 341.333 Z M 256 256 L 341.333 256 L 341.333 341.333 L 256 341.333 Z M 128 128 L 213.33301 128 L 213.33301 213.33301 L 128 213.33301 Z M 0 128 L 85.333 128 L 85.333 213.33301 L 0 213.33301 Z M 0 0 L 85.333 0 L 85.333 85.333 L 0 85.333 Z M 128 0 L 213.33301 0 L 213.33301 85.333 L 128 85.333 Z M 0 256 L 85.333 256 L 85.333 341.333 L 0 341.333 Z " fill="#0a050c"/>
</g>
</g>
</svg>
