<?xml version="1.0" encoding="UTF-8" standalone="no"?>
<!DOCTYPE svg PUBLIC "-//W3C//DTD SVG 1.1//EN" "http://www.w3.org/Graphics/SVG/1.1/DTD/svg11.dtd">
<svg xmlns="http://www.w3.org/2000/svg" xmlns:xlink="http://www.w3.org/1999/xlink" version="1.1" width="20pt" height="16pt" viewBox="0 0 20 16">
<g enable-background="new">
<clipPath id="cp0">
<path transform="matrix(1,0,0,-1,0,16)" d="M .06 15.96 L 20 15.96 L 20 0 L .06 0 Z "/>
</clipPath>
<g clip-path="url(#cp0)">
<path transform="matrix(1,0,0,-1,0,16)" d="M 2.398 16 L .801 16 C .32 16 0 15.68 0 15.199 L 0 13.602 C 0 13.121 .32 12.801 .801 12.801 L 2.398 12.801 C 2.879 12.801 3.199 13.121 3.199 13.602 L 3.199 15.199 C 3.199 15.68 2.879 16 2.398 16 Z M 2.398 16 "/>
<path transform="matrix(1,0,0,-1,0,16)" d="M 2.398 9.602 L .801 9.602 C .32 9.602 0 9.281 0 8.801 L 0 7.199 C 0 6.719 .32 6.398 .801 6.398 L 2.398 6.398 C 2.879 6.398 3.199 6.719 3.199 7.199 L 3.199 8.801 C 3.199 9.281 2.879 9.602 2.398 9.602 Z M 2.398 9.602 "/>
<path transform="matrix(1,0,0,-1,0,16)" d="M 2.398 3.199 L .801 3.199 C .32 3.199 0 2.879 0 2.398 L 0 .801 C 0 .32 .32 0 .801 0 L 2.398 0 C 2.879 0 3.199 .32 3.199 .801 L 3.199 2.398 C 3.199 2.879 2.879 3.199 2.398 3.199 Z M 2.398 3.199 "/>
<path transform="matrix(1,0,0,-1,0,16)" d="M 18.398 16 L 7.199 16 C 6.719 16 6.398 15.68 6.398 15.199 L 6.398 13.602 C 6.398 13.121 6.719 12.801 7.199 12.801 L 18.398 12.801 C 18.879 12.801 19.199 13.121 19.199 13.602 L 19.199 15.199 C 19.199 15.68 18.879 16 18.398 16 Z M 18.398 16 "/>
</g>
<path transform="matrix(1,0,0,-1,0,16)" d="M 18.398 9.602 L 7.199 9.602 C 6.719 9.602 6.398 9.281 6.398 8.801 L 6.398 7.199 C 6.398 6.719 6.719 6.398 7.199 6.398 L 18.398 6.398 C 18.879 6.398 19.199 6.719 19.199 7.199 L 19.199 8.801 C 19.199 9.281 18.879 9.602 18.398 9.602 Z M 18.398 9.602 "/>
<path transform="matrix(1,0,0,-1,0,16)" d="M 18.398 3.199 L 7.199 3.199 C 6.719 3.199 6.398 2.879 6.398 2.398 L 6.398 .801 C 6.398 .32 6.719 0 7.199 0 L 18.398 0 C 18.879 0 19.199 .32 19.199 .801 L 19.199 2.398 C 19.199 2.879 18.879 3.199 18.398 3.199 Z M 18.398 3.199 "/>
</g>
</svg>
