<?xml version="1.0" encoding="UTF-8" standalone="no"?>
<!DOCTYPE svg PUBLIC "-//W3C//DTD SVG 1.1//EN" "http://www.w3.org/Graphics/SVG/1.1/DTD/svg11.dtd">
<svg xmlns="http://www.w3.org/2000/svg" xmlns:xlink="http://www.w3.org/1999/xlink" version="1.1" width="65pt" height="103pt" viewBox="0 0 65 103">
<g enable-background="new">
<path transform="matrix(1,0,0,-1,0,103)" d="M 61.594 57.643 L 19.098 100.072 C 17.535 101.725 15.578 102.549 13.234 102.549 C 10.887 102.549 8.93 101.721 7.367 100.072 L 2.414 95.182 C .805 93.576 0 91.619 0 89.318 C 0 87.057 .805 85.08 2.414 83.385 L 34.09 51.775 L 2.41 20.096 C .805 18.49 0 16.533 0 14.232 C 0 11.971 .805 9.994 2.41 8.299 L 7.367 3.412 C 8.973 1.803 10.93 1.002 13.23 1.002 C 15.535 1.002 17.492 1.803 19.098 3.412 L 61.594 45.842 C 63.203 47.537 64.008 49.514 64.008 51.775 C 64.008 54.076 63.203 56.033 61.594 57.643 Z M 61.594 57.643 "/>
</g>
</svg>
