<?xml version="1.0" encoding="utf-8"?>
<!-- Generator: Adobe Illustrator 24.2.0, SVG Export Plug-In . SVG Version: 6.00 Build 0)  -->
<svg version="1.1" id="Camada_1" xmlns="http://www.w3.org/2000/svg" xmlns:xlink="http://www.w3.org/1999/xlink" x="0px" y="0px"
	 viewBox="0 0 65 103" style="enable-background:new 0 0 65 103;" xml:space="preserve">
<style type="text/css">
	.st0{enable-background:new    ;}
</style>
<g class="st0">
	<path d="M2.4,57.1l42.5,42.4c1.6,1.7,3.5,2.5,5.9,2.5c2.3,0,4.3-0.8,5.9-2.5l5-4.9c1.6-1.6,2.4-3.6,2.4-5.9c0-2.3-0.8-4.2-2.4-5.9
		L29.9,51.2l31.7-31.7c1.6-1.6,2.4-3.6,2.4-5.9c0-2.3-0.8-4.2-2.4-5.9l-5-4.9c-1.6-1.6-3.6-2.4-5.9-2.4c-2.3,0-4.3,0.8-5.9,2.4
		L2.4,45.3C0.8,47,0,49,0,51.2C0,53.5,0.8,55.5,2.4,57.1z"/>
</g>
</svg>
