<?xml version="1.0" encoding="UTF-8" standalone="no"?>
<!DOCTYPE svg PUBLIC "-//W3C//DTD SVG 1.1//EN" "http://www.w3.org/Graphics/SVG/1.1/DTD/svg11.dtd">
<svg xmlns="http://www.w3.org/2000/svg" xmlns:xlink="http://www.w3.org/1999/xlink" version="1.1" width="237pt" height="213pt" viewBox="0 0 237 213">
<g enable-background="new">
<clipPath id="cp0">
<path transform="matrix(1,0,0,-1,0,213)" d="M .06 212.2 L 237 212.2 L 237 .19999695 L .06 .19999695 Z "/>
</clipPath>
<g clip-path="url(#cp0)">
<path transform="matrix(1,0,0,-1,0,213)" d="M 132 145.001 L 132 151.802 C 132 159.227 126.176 165.001 118.75 165.001 L 118.582 165.001 C 111.156 165.001 104.801 159.227 104.801 151.802 L 104.801 145.001 Z M 132 145.001 "/>
<path transform="matrix(1,0,0,-1,0,213)" d="M 217.332 212.2 L 20 212.2 C 8.973 212.2 0 203.095 0 192.067 L 0 73.802 C 0 62.77 8.973 53.802 20 53.802 L 88 53.802 L 88 31.399 L 148 31.399 L 148 53.802 L 217.332 53.802 C 228.359 53.802 236.801 62.77 236.801 73.802 L 236.801 192.067 C 236.801 203.095 228.359 212.2 217.332 212.2 Z M 148 129.044 L 148 101.044 C 148 92.223 141.488 85.001 132.668 85.001 L 104.668 85.001 C 95.844 85.001 88 92.223 88 101.044 L 88 129.044 C 88 133.434 89.602 137.403 92.801 140.286 L 92.801 151.802 C 92.801 165.845 104.539 177.001 118.582 177.001 L 118.754 177.001 C 132.793 177.001 144 165.845 144 151.802 L 144 139.829 C 146.398 136.989 148 133.212 148 129.044 Z M 148 129.044 "/>
</g>
<path transform="matrix(1,0,0,-1,0,213)" d="M 170.652 19.399 L 66.742 19.399 C 57.344 19.399 49.34 10.598 47.43 1.001 L 189.906 1.001 C 188.004 10.598 180.051 19.399 170.652 19.399 Z M 170.652 19.399 "/>
<path transform="matrix(1,0,0,-1,0,213)" d="M 107.004 121.559 C 107.004 117.559 108.801 114.04 112 111.97 L 112 102.72 C 112 99.559 114.844 97.001 118 97.001 C 121.16 97.001 124 99.559 124 102.72 L 124 111.485 C 128 113.454 130.062 117.227 130.062 121.559 C 130.062 127.927 124.898 133.091 118.531 133.091 C 112.168 133.087 107.004 127.927 107.004 121.559 Z M 107.004 121.559 "/>
</g>
</svg>
