<?xml version="1.0" encoding="UTF-8" standalone="no"?>
<!DOCTYPE svg PUBLIC "-//W3C//DTD SVG 1.1//EN" "http://www.w3.org/Graphics/SVG/1.1/DTD/svg11.dtd">
<svg xmlns="http://www.w3.org/2000/svg" xmlns:xlink="http://www.w3.org/1999/xlink" version="1.1" width="512pt" height="512pt" viewBox="0 0 512 512">
<g enable-background="new">
<clipPath id="cp0">
<path transform="matrix(1,0,0,-1,0,512)" d="M .06 512 L 511.962 512 L 511.962 0 L .06 0 Z "/>
</clipPath>
<g clip-path="url(#cp0)">
<path transform="matrix(1,0,0,-1,0,512)" d="M 502.38 237.676 C 489.038 251.539 466.51 251.279 452.905 237.674 L 382.007 166.776 C 379.157 163.926 376.948 160.516 375.408 156.793 C 365.752 133.451 342.738 116.986 315.948 116.986 L 215.883 116.986 L 215.883 146.986 L 315.949 146.986 C 334.9 146.986 350.263 162.349 350.263 181.3 C 350.263 200.251 334.9 215.613 315.949 215.613 L 248.354 215.613 C 227.051 215.613 206.092 220.983 187.413 231.226 C 151.755 250.78 107.469 244.454 78.712 215.697 L 0 136.947 L 136.948 0 C 161.116 24.168 193.895 37.745 228.073 37.745 L 308.037 37.745 C 335.434 37.745 361.701 48.666 381.021 68.09 L 501.911 189.626 C 515.154 202.868 515.31 224.242 502.38 237.676 " fill="#0a050c"/>
</g>
<path transform="matrix(1,0,0,-1,0,512)" d="M 126.232 271.277 C 152.462 275.023 178.605 270.27 201.837 257.53 C 213.889 250.921 227.285 246.965 240.962 245.909 L 240.962 336.02 L 141.058 393.7 L 141.058 411.02 L 156.058 419.68 L 255.962 362 L 355.866 419.68 L 370.866 411.02 L 370.866 393.7 L 270.962 336.02 L 270.962 245.614 L 315.948 245.614 C 329.888 245.614 342.803 241.152 353.349 233.587 L 400.865 261.021 L 400.865 428.34 L 255.962 512 L 111.058 428.34 L 111.058 268.119 C 116.009 269.476 121.071 270.54 126.232 271.277 " fill="#0a050c"/>
</g>
</svg>
