<?xml version="1.0" encoding="UTF-8" standalone="no"?>
<!DOCTYPE svg PUBLIC "-//W3C//DTD SVG 1.1//EN" "http://www.w3.org/Graphics/SVG/1.1/DTD/svg11.dtd">
<svg xmlns="http://www.w3.org/2000/svg" xmlns:xlink="http://www.w3.org/1999/xlink" version="1.1" width="470pt" height="342pt" viewBox="0 0 470 342">
<g enable-background="new">
<clipPath id="cp0">
<path transform="matrix(1,0,0,-1,0,342)" d="M .06 341.333 L 469.333 341.333 L 469.333 .05999756 L .06 .05999756 Z "/>
</clipPath>
<g clip-path="url(#cp0)">
<path transform="matrix(1,0,0,-1,0,342)" d="M 362.667 32 C 344.96 32 330.667 46.293 330.667 64 C 330.667 81.706 344.96 96 362.667 96 C 380.373 96 394.667 81.706 394.667 64 C 394.667 46.293 380.373 32 362.667 32 Z M 394.667 224 L 436.587 170.666 L 341.333 170.666 L 341.333 224 L 394.667 224 Z M 106.667 32 C 88.96 32 74.667 46.293 74.667 64 C 74.667 81.706 88.96 96 106.667 96 C 124.373 96 138.667 81.706 138.667 64 C 138.667 46.293 124.373 32 106.667 32 Z M 405.333 256 L 341.333 256 L 341.333 341.333 L 42.667 341.333 C 19.093 341.333 0 322.24 0 298.666 L 0 64 L 42.667 64 C 42.667 28.693 71.36 0 106.667 0 C 141.973 0 170.667 28.693 170.667 64 L 298.667 64 C 298.667 28.693 327.36 0 362.667 0 C 397.973 0 426.667 28.693 426.667 64 L 469.333 64 L 469.333 170.666 L 405.333 256 " fill="#0a050c"/>
</g>
</g>
</svg>
