<?xml version="1.0" encoding="UTF-8" standalone="no"?>
<!DOCTYPE svg PUBLIC "-//W3C//DTD SVG 1.1//EN" "http://www.w3.org/Graphics/SVG/1.1/DTD/svg11.dtd">
<svg xmlns="http://www.w3.org/2000/svg" xmlns:xlink="http://www.w3.org/1999/xlink" version="1.1" width="401pt" height="430pt" viewBox="0 0 401 430">
<g enable-background="new">
<path transform="matrix(1,0,0,-1,0,430)" d="M 200.098 187.559 C 71.053 187.559 0 126.433 0 15.673 C 0 6.792 6.792 0 15.674 0 L 384.522 0 C 393.404 0 400.196 6.792 400.196 15.673 C 400.196 126.433 329.143 187.559 200.098 187.559 " fill="#00b5c3"/>
<path transform="matrix(1,0,0,-1,0,430)" d="M 200.098 210.547 C 257.567 210.547 304.065 261.224 304.065 323.396 C 304.065 384 259.135 429.453 200.098 429.453 C 141.061 429.453 96.131 384 96.131 323.396 C 96.131 261.224 142.629 210.547 200.098 210.547 " fill="#00b5c3"/>
</g>
</svg>
