<svg width="488" height="365pt" viewBox="0 0 366 365"><path d="M332.691 252.001l-24-24v-64.293c0-61.379-43.894-112.5-102-123.707v-16c0-13.235-10.765-24-24-24-13.234 0-24 10.765-24 24v16c-58.109 11.207-102 62.328-102 123.707v64.293l-24 24v32h-24v24h348v-24h-24zm-150 112c22.336 0 41.614-13.082 50.602-32H132.086c8.988 18.918 28.266 32 50.605 32zm159.118-230.719l23.574-4.512c-5.125-26.789-16.379-52.64-32.539-74.761C316.781 32.032 295.73 13.528 271.965.501L260.43 21.548c42.597 23.347 72.258 64.07 81.379 111.734zM104.953 21.548L93.418.501c-23.766 13.027-44.82 31.531-60.879 53.508C16.379 76.13 5.125 101.981 0 128.77l23.57 4.512c9.121-47.664 38.785-88.387 81.383-111.734zm0 0"/></svg>