<svg width="448pt" height="512pt" viewBox="0 0 448 512"><g clip-path="url(#a)"><path d="M235.605 203.52v25.742c0 8.176 1.633 15.035 4.856 20.379 4.445 7.375 11.742 11.601 20.027 11.601 8.117 0 16.184-3.953 23.973-11.742l85.023-85.023c18.668-18.668 18.668-49.043 0-67.711l-85.023-85.024C276.672 3.949 268.605 0 260.488 0c-12.386 0-24.883 9.891-24.883 31.98v23.379C114.895 62.488 14.965 155.125.113 276.41a14.998 14.998 0 0014.883 16.824c4.68 0 9.219-2.191 12.109-6.14 39.836-54.43 103.797-86.926 171.094-86.926a211.77 211.77 0 0137.406 3.352zm0 0"/><path d="M438.254 219.82a14.996 14.996 0 00-17.625 5.09c-39.832 54.426-103.793 86.922-171.09 86.922a211.77 211.77 0 01-37.406-3.352v-25.742c0-22.09-12.5-31.98-24.883-31.98-8.117 0-16.184 3.953-23.977 11.746L78.25 347.523c-18.664 18.668-18.664 49.043.004 67.715l85.019 85.02c7.793 7.793 15.86 11.742 23.977 11.742 12.383 0 24.883-9.891 24.883-31.98v-23.379c120.715-7.129 220.64-99.766 235.492-221.047a14.998 14.998 0 00-9.371-15.774zm0 0"/></g></svg>