<svg width="20pt" height="16pt" viewBox="0 0 20 16"><g clip-path="url(#a)"><path d="M2.398 0H.801C.32 0 0 .32 0 .801v1.597c0 .481.32.801.801.801h1.597c.481 0 .801-.32.801-.801V.801C3.199.32 2.879 0 2.398 0zm0 6.398H.801c-.481 0-.801.321-.801.801v1.602c0 .48.32.801.801.801h1.597c.481 0 .801-.321.801-.801V7.199c0-.48-.32-.801-.801-.801zm0 6.403H.801c-.481 0-.801.32-.801.801v1.597c0 .481.32.801.801.801h1.597c.481 0 .801-.32.801-.801v-1.597c0-.481-.32-.801-.801-.801zM18.398 0H7.199c-.48 0-.801.32-.801.801v1.597c0 .481.321.801.801.801h11.199c.481 0 .801-.32.801-.801V.801c0-.481-.32-.801-.801-.801zm0 0"/></g><path d="M18.398 6.398H7.199c-.48 0-.801.321-.801.801v1.602c0 .48.321.801.801.801h11.199c.481 0 .801-.321.801-.801V7.199c0-.48-.32-.801-.801-.801zm0 6.403H7.199c-.48 0-.801.32-.801.801v1.597c0 .481.321.801.801.801h11.199c.481 0 .801-.32.801-.801v-1.597c0-.481-.32-.801-.801-.801zm0 0"/></svg>