<svg width="316" height="284" viewBox="0 0 237 213"><g clip-path="url(#a)"><path d="M132 67.999v-6.801c0-7.425-5.824-13.199-13.25-13.199h-.168c-7.426 0-13.781 5.774-13.781 13.199v6.801zm0 0"/><path d="M217.332.8H20C8.973.8 0 9.905 0 20.933v118.265c0 11.032 8.973 20 20 20h68v22.403h60v-22.403h69.332c11.027 0 19.469-8.968 19.469-20V20.933C236.801 9.905 228.359.8 217.332.8zM148 83.956v28c0 8.821-6.512 16.043-15.332 16.043h-28c-8.824 0-16.668-7.222-16.668-16.043v-28c0-4.39 1.602-8.359 4.801-11.242V61.198c0-14.043 11.738-25.199 25.781-25.199h.172c14.039 0 25.246 11.156 25.246 25.199v11.973c2.398 2.84 4 6.617 4 10.785zm0 0"/></g><path d="M170.652 193.601H66.742c-9.398 0-17.402 8.801-19.312 18.398h142.476c-1.902-9.597-9.855-18.398-19.254-18.398zm-63.648-102.16c0 4 1.797 7.519 4.996 9.589v9.25c0 3.161 2.844 5.719 6 5.719 3.16 0 6-2.558 6-5.719v-8.765c4-1.969 6.062-5.742 6.062-10.074 0-6.368-5.164-11.532-11.531-11.532-6.363.004-11.527 5.164-11.527 11.532zm0 0"/></svg>