<svg width="512pt" height="512pt" viewBox="0 0 512 512"><g clip-path="url(#a)"><path d="M502.38 274.324c-13.342-13.863-35.87-13.603-49.475.002l-70.898 70.898c-2.85 2.85-5.059 6.26-6.599 9.983-9.656 23.342-32.67 39.807-59.46 39.807H215.883v-30h100.066c18.951 0 34.314-15.363 34.314-34.314s-15.363-34.313-34.314-34.313h-67.595c-21.303 0-42.262-5.37-60.941-15.613-35.658-19.554-79.944-13.228-108.701 15.529L0 375.053 136.948 512a128.87 128.87 0 0191.125-37.745h79.964a102.94 102.94 0 0072.984-30.345l120.89-121.536c13.243-13.242 13.399-34.616.469-48.05"/></g><path d="M126.232 240.723c26.23-3.746 52.373 1.007 75.605 13.747 12.052 6.609 25.448 10.565 39.125 11.621V175.98l-99.904-57.68v-17.32l15-8.66L255.962 150l99.904-57.68 15 8.66v17.32l-99.904 57.68v90.406h44.986c13.94 0 26.855 4.462 37.401 12.027l47.516-27.434V83.66L255.962 0 111.058 83.66v160.221a123.353 123.353 0 0115.174-3.158"/></svg>