<svg width="470pt" height="456" viewBox="0 0 470 342"><g clip-path="url(#a)"><path d="M362.667 310c-17.707 0-32-14.293-32-32 0-17.706 14.293-32 32-32 17.706 0 32 14.294 32 32 0 17.707-14.294 32-32 32zm32-192l41.92 53.334h-95.254V118h53.334zm-288 192c-17.707 0-32-14.293-32-32 0-17.706 14.293-32 32-32 17.706 0 32 14.294 32 32 0 17.707-14.294 32-32 32zM405.333 86h-64V.667H42.667C19.093.667 0 19.76 0 43.334V278h42.667c0 35.307 28.693 64 64 64 35.306 0 64-28.693 64-64h128c0 35.307 28.693 64 64 64 35.306 0 64-28.693 64-64h42.666V171.334l-64-85.334"/></g></svg>