<svg class="svg-sprites" id="skin-sprite" xmlns="http://www.w3.org/2000/svg" xmlns:xlink="http://www.w3.org/1999/xlink">
    <symbol viewBox="0 0 25 21" id="z-cart"><path d="M21.453 13.137L24.34 4.5c.144-.414.035-.664-.082-.828-.297-.422-.914-.426-1.031-.426L6.918 3.242 6.48 1.18C6.363.691 6.016.226 5.316.226H.734C.258.226 0 .449 0 .894v1.192c0 .429.258.539.75.539h3.871l2.961 12.574c-.473.5-.727 1.227-.727 1.902 0 1.493 1.188 2.868 2.704 2.868 1.433 0 2.507-1.344 2.679-2.141h5.77c.172.797 1.043 2.172 2.68 2.172 1.488 0 2.703-1.293 2.703-2.781 0-1.481-.903-2.793-2.688-2.793-.746 0-1.625.402-2.035 1h-7.09c-.512-.801-1.215-1.047-1.926-1.075l-.097-.523h10.781c.816 0 .973-.297 1.117-.691zm-.746 3.035a1.016 1.016 0 110 2.032 1.016 1.016 0 010-2.032zm-10.145 1.015a1.027 1.027 0 11-2.055.001 1.027 1.027 0 012.055-.001zm0 0"/></symbol>
    <symbol viewBox="0 0 101.5 64" id="z-down"><path d="M56.6 61.6L99 19.1c1.7-1.6 2.5-3.5 2.5-5.9 0-2.3-.8-4.3-2.5-5.9l-4.9-5C92.6.8 90.6 0 88.3 0s-4.2.8-5.9 2.4L50.8 34.1 19.1 2.4C17.5.8 15.5 0 13.2 0 11 0 9 .8 7.3 2.4l-4.9 5C.8 9 0 10.9 0 13.2s.8 4.3 2.4 5.9l42.4 42.5c1.7 1.6 3.7 2.4 5.9 2.4 2.4 0 4.3-.8 5.9-2.4z"/></symbol>
    <symbol viewBox="0 0 20 16" id="z-menu"><g clip-path="url(#a)"><path d="M19.199.801c0-.481-.32-.801-.801-.801H.801C.32 0 0 .32 0 .801v1.597c0 .481.32.801.801.801h17.597c.481 0 .801-.32.801-.801zm0 6.398c0-.48-.32-.801-.801-.801H.801c-.481 0-.801.321-.801.801v1.602c0 .48.32.801.801.801h17.597c.481 0 .801-.321.801-.801zm0 6.403c0-.481-.32-.801-.801-.801H.801c-.481 0-.801.32-.801.801v1.597c0 .481.32.801.801.801h17.597c.481 0 .801-.32.801-.801zm0 0"/></g></symbol>
    <symbol viewBox="0 0 65 103" id="z-next"><path d="M61.594 45.357L19.098 2.928C17.535 1.275 15.578.451 13.234.451c-2.347 0-4.304.828-5.867 2.477l-4.953 4.89C.805 9.424 0 11.381 0 13.682c0 2.261.805 4.238 2.414 5.933l31.676 31.61L2.41 82.904C.805 84.51 0 86.467 0 88.768c0 2.261.805 4.238 2.41 5.933l4.957 4.887c1.606 1.609 3.563 2.41 5.863 2.41 2.305 0 4.262-.801 5.868-2.41l42.496-42.43c1.609-1.695 2.414-3.672 2.414-5.933 0-2.301-.805-4.258-2.414-5.868zm0 0"/></symbol>
    <symbol viewBox="0 0 480.56 480.56" id="z-phone"><path d="M365.354 317.9c-15.7-15.5-35.3-15.5-50.9 0-11.9 11.8-23.8 23.6-35.5 35.6-3.2 3.3-5.9 4-9.8 1.8-7.7-4.2-15.9-7.6-23.3-12.2-34.5-21.7-63.4-49.6-89-81-12.7-15.6-24-32.3-31.9-51.1-1.6-3.8-1.3-6.3 1.8-9.4 11.9-11.5 23.5-23.3 35.2-35.1 16.3-16.4 16.3-35.6-.1-52.1-9.3-9.4-18.6-18.6-27.9-28-9.6-9.6-19.1-19.3-28.8-28.8-15.7-15.3-35.3-15.3-50.9.1-12 11.8-23.5 23.9-35.7 35.5-11.3 10.7-17 23.8-18.2 39.1-1.9 24.9 4.2 48.4 12.8 71.3 17.6 47.4 44.4 89.5 76.9 128.1 43.9 52.2 96.3 93.5 157.6 123.3 27.6 13.4 56.2 23.7 87.3 25.4 21.4 1.2 40-4.2 54.9-20.9 10.2-11.4 21.7-21.8 32.5-32.7 16-16.2 16.1-35.8.2-51.8-19-19.1-38.1-38.1-57.2-57.1zm-19.1-79.7l36.9-6.3c-5.8-33.9-21.8-64.6-46.1-89-25.7-25.7-58.2-41.9-94-46.9l-5.2 37.1c27.7 3.9 52.9 16.4 72.8 36.3 18.8 18.8 31.1 42.6 35.6 68.8zm57.7-160.4c-42.6-42.6-96.5-69.5-156-77.8l-5.2 37.1c51.4 7.2 98 30.5 134.8 67.2 34.9 34.9 57.8 79 66.1 127.5l36.9-6.3c-9.7-56.2-36.2-107.2-76.6-147.7z"/></symbol>
    <symbol viewBox="0 0 65 103" id="z-prev"><path d="M2.4 57.1l42.5 42.4c1.6 1.7 3.5 2.5 5.9 2.5 2.3 0 4.3-.8 5.9-2.5l5-4.9c1.6-1.6 2.4-3.6 2.4-5.9 0-2.3-.8-4.2-2.4-5.9L29.9 51.2l31.7-31.7c1.6-1.6 2.4-3.6 2.4-5.9 0-2.3-.8-4.2-2.4-5.9l-5-4.9C55 1.2 53 .4 50.7.4c-2.3 0-4.3.8-5.9 2.4L2.4 45.3C.8 47 0 49 0 51.2c0 2.3.8 4.3 2.4 5.9z"/></symbol>
    <symbol viewBox="0 0 19 19" id="z-search"><path d="M12.857 8.143c0 2.757-2.243 5-5 5s-5-2.243-5-5 2.243-5 5-5 5 2.243 5 5zm5.714 9.286c0-.38-.156-.748-.413-1.005l-3.828-3.828a7.84 7.84 0 001.384-4.453A7.854 7.854 0 007.857.286 7.854 7.854 0 000 8.143 7.854 7.854 0 007.857 16a7.84 7.84 0 004.453-1.384l3.828 3.817a1.4 1.4 0 001.005.424c.781 0 1.428-.647 1.428-1.428z"/></symbol>
    <symbol viewBox="0 0 401 430" id="z-user"><path d="M200.098 242.441C71.053 242.441 0 303.567 0 414.327 0 423.208 6.792 430 15.674 430h368.848c8.882 0 15.674-6.792 15.674-15.673 0-110.76-71.053-171.886-200.098-171.886m0-22.988c57.469 0 103.967-50.677 103.967-112.849C304.065 46 259.135.547 200.098.547S96.131 46 96.131 106.604c0 62.172 46.498 112.849 103.967 112.849"/></symbol>
</svg>