<svg class="svg-sprites" id="skin-sprite" xmlns="http://www.w3.org/2000/svg" xmlns:xlink="http://www.w3.org/1999/xlink">
    <symbol viewBox="0 0 366 365" id="z-alarm"><path d="M332.691 252.001l-24-24v-64.293c0-61.379-43.894-112.5-102-123.707v-16c0-13.235-10.765-24-24-24-13.234 0-24 10.765-24 24v16c-58.109 11.207-102 62.328-102 123.707v64.293l-24 24v32h-24v24h348v-24h-24zm-150 112c22.336 0 41.614-13.082 50.602-32H132.086c8.988 18.918 28.266 32 50.605 32zm159.118-230.719l23.574-4.512c-5.125-26.789-16.379-52.64-32.539-74.761C316.781 32.032 295.73 13.528 271.965.501L260.43 21.548c42.597 23.347 72.258 64.07 81.379 111.734zM104.953 21.548L93.418.501c-23.766 13.027-44.82 31.531-60.879 53.508C16.379 76.13 5.125 101.981 0 128.77l23.57 4.512c9.121-47.664 38.785-88.387 81.383-111.734zm0 0"/></symbol>
    <symbol viewBox="0 0 160 256" id="z-automatizadores"><g clip-path="url(#clip-path)"><path d="M128 0H32A32 32 0 000 32v192a32 32 0 0032 32h96a32 32 0 0032-32V32a32 32 0 00-32-32M64 208H32v-32h32zm64 0H96v-32h32zm-48-64a48 48 0 1148-48 48 48 0 01-48 48"/><path d="M112 96a32 32 0 11-32-32 32 32 0 0132 32"/></g></symbol>
    <symbol viewBox="0 0 25 21" id="z-cart"><path d="M21.453 13.137L24.34 4.5c.144-.414.035-.664-.082-.828-.297-.422-.914-.426-1.031-.426L6.918 3.242 6.48 1.18C6.363.691 6.016.226 5.316.226H.734C.258.226 0 .449 0 .894v1.192c0 .429.258.539.75.539h3.871l2.961 12.574c-.473.5-.727 1.227-.727 1.902 0 1.493 1.188 2.868 2.704 2.868 1.433 0 2.507-1.344 2.679-2.141h5.77c.172.797 1.043 2.172 2.68 2.172 1.488 0 2.703-1.293 2.703-2.781 0-1.481-.903-2.793-2.688-2.793-.746 0-1.625.402-2.035 1h-7.09c-.512-.801-1.215-1.047-1.926-1.075l-.097-.523h10.781c.816 0 .973-.297 1.117-.691zm-.746 3.035a1.016 1.016 0 110 2.032 1.016 1.016 0 010-2.032zm-10.145 1.015a1.027 1.027 0 11-2.055.001 1.027 1.027 0 012.055-.001zm0 0"/></symbol>
    <symbol viewBox="0 0 512 512" id="z-clients"><path d="M211 286c0 24.812 20.188 45 45 45s45-20.188 45-45-20.188-45-45-45-45 20.188-45 45zm45 75c-49.629 0-90 40.371-90 90v61h180v-61c0-49.629-40.371-90-90-90zm-120-45c0-24.812-20.188-45-45-45s-45 20.188-45 45 20.188 45 45 45 45-20.188 45-45zm0 0"/><g clip-path="url(#a)"><path d="M466 316c0-24.812-20.188-45-45-45s-45 20.188-45 45 20.188 45 45 45 45-20.188 45-45zM76 0L53.18 53.801 0 61.301l38.355 36.433L29.535 151 76 126.715 122.465 151l-8.82-53.266L151 61.301l-51.621-7.5zm0 0"/></g><path d="M279.379 53.801L256 0l-22.82 53.801-52.18 7.5 37.355 36.433-8.82 53.266L256 126.715 302.465 151l-8.82-53.266L331 61.301zM436 0l-22.82 53.801-52.18 7.5 37.355 36.433-8.82 53.266L436 126.715 482.465 151l-8.82-53.266L512 61.301l-52.621-7.5zm0 0"/><g clip-path="url(#b)"><path d="M421 391c-19.938 0-38.184 6.691-53.098 17.66C372.922 421.875 376 436.047 376 451v61h136v-31c0-49.707-41.293-90-91-90zM0 481v31h136v-61c0-14.953 3.078-29.125 8.098-42.34C129.184 397.691 110.938 391 91 391c-49.707 0-91 40.293-91 90zm0 0"/></g></symbol>
    <symbol viewBox="0 0 101.5 64" id="z-down"><path d="M56.6 61.6L99 19.1c1.7-1.6 2.5-3.5 2.5-5.9 0-2.3-.8-4.3-2.5-5.9l-4.9-5C92.6.8 90.6 0 88.3 0s-4.2.8-5.9 2.4L50.8 34.1 19.1 2.4C17.5.8 15.5 0 13.2 0 11 0 9 .8 7.3 2.4l-4.9 5C.8 9 0 10.9 0 13.2s.8 4.3 2.4 5.9l42.4 42.5c1.7 1.6 3.7 2.4 5.9 2.4 2.4 0 4.3-.8 5.9-2.4z"/></symbol>
    <symbol viewBox="0 0 20 16" id="z-menu"><g clip-path="url(#a)"><path d="M19.199.801c0-.481-.32-.801-.801-.801H.801C.32 0 0 .32 0 .801v1.597c0 .481.32.801.801.801h17.597c.481 0 .801-.32.801-.801zm0 6.398c0-.48-.32-.801-.801-.801H.801c-.481 0-.801.321-.801.801v1.602c0 .48.32.801.801.801h17.597c.481 0 .801-.321.801-.801zm0 6.403c0-.481-.32-.801-.801-.801H.801c-.481 0-.801.32-.801.801v1.597c0 .481.32.801.801.801h17.597c.481 0 .801-.32.801-.801zm0 0"/></g></symbol>
    <symbol viewBox="0 0 65 103" id="z-next"><path d="M61.594 45.357L19.098 2.928C17.535 1.275 15.578.451 13.234.451c-2.347 0-4.304.828-5.867 2.477l-4.953 4.89C.805 9.424 0 11.381 0 13.682c0 2.261.805 4.238 2.414 5.933l31.676 31.61L2.41 82.904C.805 84.51 0 86.467 0 88.768c0 2.261.805 4.238 2.41 5.933l4.957 4.887c1.606 1.609 3.563 2.41 5.863 2.41 2.305 0 4.262-.801 5.868-2.41l42.496-42.43c1.609-1.695 2.414-3.672 2.414-5.933 0-2.301-.805-4.258-2.414-5.868zm0 0"/></symbol>
    <symbol viewBox="0 0 480.56 480.56" id="z-phone"><path d="M365.354 317.9c-15.7-15.5-35.3-15.5-50.9 0-11.9 11.8-23.8 23.6-35.5 35.6-3.2 3.3-5.9 4-9.8 1.8-7.7-4.2-15.9-7.6-23.3-12.2-34.5-21.7-63.4-49.6-89-81-12.7-15.6-24-32.3-31.9-51.1-1.6-3.8-1.3-6.3 1.8-9.4 11.9-11.5 23.5-23.3 35.2-35.1 16.3-16.4 16.3-35.6-.1-52.1-9.3-9.4-18.6-18.6-27.9-28-9.6-9.6-19.1-19.3-28.8-28.8-15.7-15.3-35.3-15.3-50.9.1-12 11.8-23.5 23.9-35.7 35.5-11.3 10.7-17 23.8-18.2 39.1-1.9 24.9 4.2 48.4 12.8 71.3 17.6 47.4 44.4 89.5 76.9 128.1 43.9 52.2 96.3 93.5 157.6 123.3 27.6 13.4 56.2 23.7 87.3 25.4 21.4 1.2 40-4.2 54.9-20.9 10.2-11.4 21.7-21.8 32.5-32.7 16-16.2 16.1-35.8.2-51.8-19-19.1-38.1-38.1-57.2-57.1zm-19.1-79.7l36.9-6.3c-5.8-33.9-21.8-64.6-46.1-89-25.7-25.7-58.2-41.9-94-46.9l-5.2 37.1c27.7 3.9 52.9 16.4 72.8 36.3 18.8 18.8 31.1 42.6 35.6 68.8zm57.7-160.4c-42.6-42.6-96.5-69.5-156-77.8l-5.2 37.1c51.4 7.2 98 30.5 134.8 67.2 34.9 34.9 57.8 79 66.1 127.5l36.9-6.3c-9.7-56.2-36.2-107.2-76.6-147.7z"/></symbol>
    <symbol viewBox="0 0 65 103" id="z-prev"><path d="M2.4 57.1l42.5 42.4c1.6 1.7 3.5 2.5 5.9 2.5 2.3 0 4.3-.8 5.9-2.5l5-4.9c1.6-1.6 2.4-3.6 2.4-5.9 0-2.3-.8-4.2-2.4-5.9L29.9 51.2l31.7-31.7c1.6-1.6 2.4-3.6 2.4-5.9 0-2.3-.8-4.2-2.4-5.9l-5-4.9C55 1.2 53 .4 50.7.4c-2.3 0-4.3.8-5.9 2.4L2.4 45.3C.8 47 0 49 0 51.2c0 2.3.8 4.3 2.4 5.9z"/></symbol>
    <symbol viewBox="0 0 19 19" id="z-search"><path d="M12.857 8.143c0 2.757-2.243 5-5 5s-5-2.243-5-5 2.243-5 5-5 5 2.243 5 5zm5.714 9.286c0-.38-.156-.748-.413-1.005l-3.828-3.828a7.84 7.84 0 001.384-4.453A7.854 7.854 0 007.857.286 7.854 7.854 0 000 8.143 7.854 7.854 0 007.857 16a7.84 7.84 0 004.453-1.384l3.828 3.817a1.4 1.4 0 001.005.424c.781 0 1.428-.647 1.428-1.428z"/></symbol>
    <symbol viewBox="0 0 237 213" id="z-security"><g clip-path="url(#a)"><path d="M132 67.999v-6.801c0-7.425-5.824-13.199-13.25-13.199h-.168c-7.426 0-13.781 5.774-13.781 13.199v6.801zm0 0"/><path d="M217.332.8H20C8.973.8 0 9.905 0 20.933v118.265c0 11.032 8.973 20 20 20h68v22.403h60v-22.403h69.332c11.027 0 19.469-8.968 19.469-20V20.933C236.801 9.905 228.359.8 217.332.8zM148 83.956v28c0 8.821-6.512 16.043-15.332 16.043h-28c-8.824 0-16.668-7.222-16.668-16.043v-28c0-4.39 1.602-8.359 4.801-11.242V61.198c0-14.043 11.738-25.199 25.781-25.199h.172c14.039 0 25.246 11.156 25.246 25.199v11.973c2.398 2.84 4 6.617 4 10.785zm0 0"/></g><path d="M170.652 193.601H66.742c-9.398 0-17.402 8.801-19.312 18.398h142.476c-1.902-9.597-9.855-18.398-19.254-18.398zm-63.648-102.16c0 4 1.797 7.519 4.996 9.589v9.25c0 3.161 2.844 5.719 6 5.719 3.16 0 6-2.558 6-5.719v-8.765c4-1.969 6.062-5.742 6.062-10.074 0-6.368-5.164-11.532-11.531-11.532-6.363.004-11.527 5.164-11.527 11.532zm0 0"/></symbol>
    <symbol viewBox="0 0 512 512" id="z-shipping"><g clip-path="url(#a)"><path d="M502.38 274.324c-13.342-13.863-35.87-13.603-49.475.002l-70.898 70.898c-2.85 2.85-5.059 6.26-6.599 9.983-9.656 23.342-32.67 39.807-59.46 39.807H215.883v-30h100.066c18.951 0 34.314-15.363 34.314-34.314s-15.363-34.313-34.314-34.313h-67.595c-21.303 0-42.262-5.37-60.941-15.613-35.658-19.554-79.944-13.228-108.701 15.529L0 375.053 136.948 512a128.87 128.87 0 0191.125-37.745h79.964a102.94 102.94 0 0072.984-30.345l120.89-121.536c13.243-13.242 13.399-34.616.469-48.05"/></g><path d="M126.232 240.723c26.23-3.746 52.373 1.007 75.605 13.747 12.052 6.609 25.448 10.565 39.125 11.621V175.98l-99.904-57.68v-17.32l15-8.66L255.962 150l99.904-57.68 15 8.66v17.32l-99.904 57.68v90.406h44.986c13.94 0 26.855 4.462 37.401 12.027l47.516-27.434V83.66L255.962 0 111.058 83.66v160.221a123.353 123.353 0 0115.174-3.158"/></symbol>
    <symbol viewBox="0 0 470 342" id="z-truck"><g clip-path="url(#a)"><path d="M362.667 310c-17.707 0-32-14.293-32-32 0-17.706 14.293-32 32-32 17.706 0 32 14.294 32 32 0 17.707-14.294 32-32 32zm32-192l41.92 53.334h-95.254V118h53.334zm-288 192c-17.707 0-32-14.293-32-32 0-17.706 14.293-32 32-32 17.706 0 32 14.294 32 32 0 17.707-14.294 32-32 32zM405.333 86h-64V.667H42.667C19.093.667 0 19.76 0 43.334V278h42.667c0 35.307 28.693 64 64 64 35.306 0 64-28.693 64-64h128c0 35.307 28.693 64 64 64 35.306 0 64-28.693 64-64h42.666V171.334l-64-85.334"/></g></symbol>
    <symbol viewBox="0 0 401 430" id="z-user"><path d="M200.098 242.441C71.053 242.441 0 303.567 0 414.327 0 423.208 6.792 430 15.674 430h368.848c8.882 0 15.674-6.792 15.674-15.673 0-110.76-71.053-171.886-200.098-171.886m0-22.988c57.469 0 103.967-50.677 103.967-112.849C304.065 46 259.135.547 200.098.547S96.131 46 96.131 106.604c0 62.172 46.498 112.849 103.967 112.849"/></symbol>
    <symbol viewBox="0 0 342 342" id="i-grid"><g><path d="M256 342h85.333v-85.333H256zm0-128h85.333v-85.333H256zM128 86h85.333V.667H128zm128 0h85.333V.667H256zM128 214h85.333v-85.333H128zM0 214h85.333v-85.333H0zm0 128h85.333v-85.333H0zm128 0h85.333v-85.333H128zM0 86h85.333V.667H0z"/></g></symbol>
    <symbol viewBox="0 0 20 16" id="i-list"><g><path d="M2.398 0H.801C.32 0 0 .32 0 .801v1.597c0 .481.32.801.801.801h1.597c.481 0 .801-.32.801-.801V.801C3.199.32 2.879 0 2.398 0zm0 6.398H.801c-.481 0-.801.321-.801.801v1.602c0 .48.32.801.801.801h1.597c.481 0 .801-.321.801-.801V7.199c0-.48-.32-.801-.801-.801zm0 6.403H.801c-.481 0-.801.32-.801.801v1.597c0 .481.32.801.801.801h1.597c.481 0 .801-.32.801-.801v-1.597c0-.481-.32-.801-.801-.801zM18.398 0H7.199c-.48 0-.801.32-.801.801v1.597c0 .481.321.801.801.801h11.199c.481 0 .801-.32.801-.801V.801c0-.481-.32-.801-.801-.801zm0 0"/></g><path d="M18.398 6.398H7.199c-.48 0-.801.321-.801.801v1.602c0 .48.321.801.801.801h11.199c.481 0 .801-.321.801-.801V7.199c0-.48-.32-.801-.801-.801zm0 6.403H7.199c-.48 0-.801.32-.801.801v1.597c0 .481.321.801.801.801h11.199c.481 0 .801-.32.801-.801v-1.597c0-.481-.32-.801-.801-.801zm0 0"/></symbol>
</svg>