<!-- SVG Sprite -->
<svg id="svg-sprite" class="svg-sprites">
    <!-- Gradients -->
    <defs>
        <!-- Horizontais -->
        <linearGradient id="color1_h" x1="0%" y1="0%" x2="100%" y2="0%"><stop offset="0%" stop-color="@bg(1)" /><stop offset="100%" stop-color="@bg(1:hover)" /></linearGradient>
        <linearGradient id="color2_h" x1="0%" y1="0%" x2="100%" y2="0%"><stop offset="0%" stop-color="@bg(2)" /><stop offset="100%" stop-color="@bg(2:hover)" /></linearGradient>
        <linearGradient id="color3_h" x1="0%" y1="0%" x2="100%" y2="0%"><stop offset="0%" stop-color="@bg(3)" /><stop offset="100%" stop-color="@bg(3:hover)" /></linearGradient>
        <linearGradient id="button_h" x1="0%" y1="0%" x2="100%" y2="0%"><stop offset="0%" stop-color="@button(bg)" /><stop offset="100%" stop-color="@button(bg:hover)" /></linearGradient>
        <linearGradient id="timer__gradient" x1="0%" y1="0%" x2="100%" y2="0%"><stop offset="0%" stop-color="@bg(1)" /><stop offset="100%" stop-color="@bg(2)" /></linearGradient>
        <!-- Verticais -->
        <linearGradient id="color1_v" x1="0%" y1="0%" x2="0%" y2="100%"><stop offset="0%" stop-color="@bg(1)" /><stop offset="100%" stop-color="@bg(1:hover)" /></linearGradient>
        <linearGradient id="color2_v" x1="0%" y1="0%" x2="0%" y2="100%"><stop offset="0%" stop-color="@bg(2)" /><stop offset="100%" stop-color="@bg(2:hover)" /></linearGradient>
        <linearGradient id="color3_v" x1="0%" y1="0%" x2="0%" y2="100%"><stop offset="0%" stop-color="@bg(3)" /><stop offset="100%" stop-color="@bg(3:hover)" /></linearGradient>
        <linearGradient id="button_v" x1="0%" y1="0%" x2="0%" y2="100%"><stop offset="0%" stop-color="@button(bg)" /><stop offset="100%" stop-color="@button(bg:hover)" /></linearGradient>
    </defs>
    <!--
	Ícones Obrigatórios
	* É possível alterá-los, porém não altere o ID
	-->
    <symbol id="i-play" 		viewBox="0 0 16 16"><path d="M2.9,1C1.3,0.2,0,0.9,0,2.4v11.2c0,1.5,1.3,2.1,2.9,1.4l11.9-5.6c1.6-0.8,1.6-2,0-2.7L2.9,1z"/></symbol>
    <symbol id="i-list" 		viewBox="0 0 16 16"><path d="M14.4,3.2H1.6C0.7,3.2,0,2.5,0,1.6v0C0,0.7,0.7,0,1.6,0l12.8,0C15.3,0,16,0.7,16,1.6v0 C16,2.5,15.3,3.2,14.4,3.2z M16,14.4L16,14.4c0-0.9-0.7-1.6-1.6-1.6H1.6c-0.9,0-1.6,0.7-1.6,1.6v0C0,15.3,0.7,16,1.6,16h12.8 C15.3,16,16,15.3,16,14.4z M16,8L16,8c0-0.9-0.7-1.6-1.6-1.6H1.6C0.7,6.4,0,7.1,0,8v0c0,0.9,0.7,1.6,1.6,1.6h12.8 C15.3,9.6,16,8.9,16,8z"/></symbol>
    <symbol id="i-grid" 		viewBox="0 0 16 16"><path d="M3.2,1.6c0,0.9-0.7,1.6-1.6,1.6S0,2.5,0,1.6S0.7,0,1.6,0S3.2,0.7,3.2,1.6z M8,0 C7.1,0,6.4,0.7,6.4,1.6S7.1,3.2,8,3.2s1.6-0.7,1.6-1.6S8.9,0,8,0z M14.4,0c-0.9,0-1.6,0.7-1.6,1.6s0.7,1.6,1.6,1.6S16,2.5,16,1.6 S15.3,0,14.4,0z M1.6,6.4C0.7,6.4,0,7.1,0,8s0.7,1.6,1.6,1.6S3.2,8.9,3.2,8S2.5,6.4,1.6,6.4z M8,6.4C7.1,6.4,6.4,7.1,6.4,8 S7.1,9.6,8,9.6S9.6,8.9,9.6,8S8.9,6.4,8,6.4z M14.4,6.4c-0.9,0-1.6,0.7-1.6,1.6s0.7,1.6,1.6,1.6S16,8.9,16,8S15.3,6.4,14.4,6.4z M1.6,12.8c-0.9,0-1.6,0.7-1.6,1.6S0.7,16,1.6,16s1.6-0.7,1.6-1.6S2.5,12.8,1.6,12.8z M8,12.8c-0.9,0-1.6,0.7-1.6,1.6S7.1,16,8,16 s1.6-0.7,1.6-1.6S8.9,12.8,8,12.8z M14.4,12.8c-0.9,0-1.6,0.7-1.6,1.6s0.7,1.6,1.6,1.6s1.6-0.7,1.6-1.6S15.3,12.8,14.4,12.8z"/></symbol>
    <symbol id="i-success"      viewBox="0 0 16 16"><path d="M8,0C3.6,0,0,3.6,0,8c0,4.4,3.6,8,8,8c4.4,0,8-3.6,8-8S12.4,0,8,0z M7.4,12.7l-1-0.7l0,0L2.9,9.5l0.7-1 L7.1,11l4.7-6.5l1,0.7L7.4,12.7z"/></symbol>
    <symbol id="img-truck" 		viewBox="0 0 16 16"><path d="M1.1,12L8,16l6.9-4V4L8,0L1.1,4V12z M7.5,14.6l-2.3-1.3V7l2.3,1.3V14.6z M14,11.5l-5.5,3.2V8.3 L14,5.1V11.5z M13.5,4.3L8,7.5L5.7,6.1l5.3-3.4L13.5,4.3z M8,1.1l2,1.2L4.8,5.6L2.5,4.3L8,1.1z M2,5.1l2.3,1.3v6.4L2,11.5 C2,11.5,2,5.1,2,5.1z M13.2,8.5L10.5,10v2.4l2.7-1.5V8.5z"/></symbol>
    <symbol id="img-cupon" 		viewBox="0 0 16 16"><path d="M16,0.6C16,0.3,15.8,0,15.4,0H7.5C7.4,0,7.2,0.1,7.1,0.2L0.7,6.5C0.3,6.9,0,7.5,0,8.1 c0,0.6,0.2,1.2,0.7,1.6l5.6,5.6c0.4,0.4,1,0.7,1.6,0.7s1.2-0.2,1.6-0.7l6.4-6.5C16,8.8,16,8.6,16,8.4V0.6z M7.2,14.4L1.6,8.8 C1.4,8.6,1.3,8.4,1.3,8.1c0-0.3,0.1-0.5,0.3-0.7l0.3-0.3l7,7l-0.3,0.3C8.2,14.8,7.5,14.8,7.2,14.4z M9.7,13.3l-7-7l5-5h7v6.9 L9.7,13.3z M13.2,4.4c0-1-0.8-1.8-1.7-1.8S9.7,3.4,9.7,4.4s0.8,1.8,1.7,1.8S13.2,5.4,13.2,4.4z M11.4,4.9c-0.3,0-0.6-0.2-0.6-0.6 s0.2-0.6,0.6-0.6c0.3,0,0.6,0.2,0.6,0.6S11.7,4.9,11.4,4.9z"/></symbol>
    <symbol id="img-os-new" 	viewBox="0 0 16 16"><path d="M13.5,15.9c0,0.1-0.1,0.1-0.1,0.1c-0.1,0-0.1,0-0.2,0c0,0-0.1,0-0.1,0l-0.7-0.7l-0.7,0.7 c-0.1,0.1-0.2,0.1-0.3,0l-0.7-0.7l-0.7,0.7c-0.1,0.1-0.2,0.1-0.3,0l-0.7-0.7l-0.7,0.7c-0.1,0.1-0.2,0.1-0.3,0l-0.7-0.7l-0.7,0.7 c-0.1,0.1-0.2,0.1-0.3,0l-0.7-0.7l-0.7,0.7c-0.1,0.1-0.2,0.1-0.3,0l-0.7-0.7l-0.7,0.7c0,0,0,0-0.1,0c-0.1,0-0.1,0-0.2,0 c-0.1,0-0.1-0.1-0.1-0.1c0,0,0-0.1,0-0.1V2.2c0,0,0,0,0,0c0,0,0,0,0,0c0-0.4,0.3-0.7,0.7-0.7c0,0,0,0,0,0h2.3V2H3.2c0,0,0,0,0,0 C3.1,2,3,2.1,3,2.2c0,0,0,0,0,0c0,0,0,0,0,0v13l0.5-0.5c0,0,0.1-0.1,0.2-0.1s0.1,0,0.2,0.1l0.7,0.7l0.7-0.7c0,0,0.1-0.1,0.2-0.1 c0.1,0,0.1,0,0.2,0.1l0.7,0.7L7,14.8c0,0,0.1-0.1,0.2-0.1c0.1,0,0.1,0,0.2,0.1L8,15.5l0.7-0.7c0,0,0.1-0.1,0.2-0.1 c0.1,0,0.1,0,0.2,0.1l0.7,0.7l0.7-0.7c0,0,0.1-0.1,0.2-0.1c0.1,0,0.1,0,0.2,0.1l0.7,0.7l0.7-0.7c0,0,0.1-0.1,0.2-0.1 c0.1,0,0.1,0,0.2,0.1l0.5,0.5v-13C13,2.1,12.9,2,12.8,2h-2.3V1.6h2.3c0.4,0,0.7,0.3,0.7,0.7L13.5,15.9 C13.5,15.8,13.5,15.8,13.5,15.9z M10.2,10.1c-0.2,0-0.4-0.3-0.4-0.7c0-0.4,0.2-0.7,0.4-0.7s0.4,0.3,0.4,0.7 C10.6,9.8,10.4,10.1,10.2,10.1z M6.9,11c0,0.6,0.5,1.1,1.1,1.1c0.6,0,1.1-0.5,1.1-1.1c0-0.1,0.1-0.2,0.2-0.2c0.1,0,0.2,0.1,0.2,0.2 c0,0.8-0.7,1.5-1.5,1.5S6.5,11.8,6.5,11c0-0.1,0.1-0.2,0.2-0.2C6.8,10.7,6.9,10.8,6.9,11z M6.3,1.5l0.3-0.3l1.1,1.1L10,0l0.3,0.3 L7.8,3.1L6.3,1.5z M5.8,10.1c-0.2,0-0.4-0.3-0.4-0.7c0-0.4,0.2-0.7,0.4-0.7s0.4,0.3,0.4,0.7C6.3,9.8,6.1,10.1,5.8,10.1z"/></symbol>
    <symbol id="img-os-ok" 		viewBox="0 0 16 16"><path d="M15.7,15.5H0.3c-0.2,0-0.3-0.1-0.3-0.3v-10c0,0,0,0,0,0v0c0,0,0,0,0,0c0,0,0,0,0-0.1l1.8-4.5c0,0,0,0,0,0 c0-0.1,0.1-0.2,0.2-0.2c0,0,0,0,0,0c0,0,0,0,0,0h11.8c0,0,0,0,0,0c0,0,0,0,0,0c0.1,0,0.2,0.1,0.2,0.2c0,0,0,0,0,0L16,5.1 c0,0,0,0,0,0.1c0,0,0,0,0,0v0c0,0,0,0,0,0v10C16,15.4,15.9,15.5,15.7,15.5z M2.3,1L0.7,4.9h5.6L6.8,1C6.8,1,2.3,1,2.3,1z M7.7,1H7.4 L7,4.9h0.7V1z M8.6,1H8.3v3.9H9L8.6,1z M9.1,5.5H6.9v0.7l1-0.3c0,0,0,0,0,0c0,0,0,0,0.1,0c0,0,0,0,0.1,0c0,0,0,0,0,0l1,0.3L9.1,5.5 L9.1,5.5z M13.7,1H9.2l0.4,3.9h5.6L13.7,1z M15.4,5.5H9.7v1.1c0,0,0,0,0,0c0,0,0,0,0,0c0,0,0,0,0,0c0,0.1-0.1,0.1-0.1,0.1 c0,0,0,0,0,0c0,0-0.1,0-0.2,0c0,0-0.1,0-0.1,0L8,6.5L6.7,6.9c0,0-0.1,0-0.1,0c-0.1,0-0.1,0-0.2,0c0,0,0,0,0,0c0,0-0.1-0.1-0.1-0.1 c0,0,0,0,0,0c0,0,0,0,0,0c0,0,0,0,0,0V5.5H0.6V15h14.8h0V5.5z M11,10.2c-0.3,0-0.6-0.4-0.6-0.9s0.3-0.9,0.6-0.9 c0.3,0,0.6,0.4,0.6,0.9S11.3,10.2,11,10.2z M8,13.5c-1.1,0-2.1-0.9-2.1-2.1c0-0.2,0.1-0.3,0.3-0.3c0.2,0,0.3,0.1,0.3,0.3 c0,0.8,0.7,1.5,1.5,1.5s1.5-0.7,1.5-1.5c0-0.2,0.1-0.3,0.3-0.3s0.3,0.1,0.3,0.3C10.1,12.6,9.1,13.5,8,13.5z M5,10.2 c-0.3,0-0.6-0.4-0.6-0.9S4.7,8.5,5,8.5c0.3,0,0.6,0.4,0.6,0.9S5.4,10.2,5,10.2z"/></symbol>
    <symbol id="img-os-sent" 	viewBox="0 0 16 16"><path d="M8,16C6.2,16,2.4,8.3,2.4,5.6C2.4,2.5,4.9,0,8,0s5.6,2.5,5.6,5.6C13.6,8.3,9.8,16,8,16z M8,0.5 c-2.8,0-5.1,2.3-5.1,5.1c0,2.9,3.8,9.9,5.1,9.9c1.2,0,5.1-7,5.1-9.9C13.1,2.8,10.8,0.5,8,0.5z M10.4,6.1c-0.3,0-0.5-0.3-0.5-0.7 c0-0.4,0.2-0.7,0.5-0.7s0.5,0.3,0.5,0.7C10.9,5.7,10.7,6.1,10.4,6.1z M8,8.7C7.1,8.7,6.3,8,6.3,7c0-0.1,0.1-0.2,0.2-0.2 c0.1,0,0.2,0.1,0.2,0.2c0,0.7,0.5,1.2,1.2,1.2S9.2,7.7,9.2,7c0-0.1,0.1-0.2,0.2-0.2S9.7,6.9,9.7,7C9.7,8,8.9,8.7,8,8.7z M5.6,6.1 c-0.3,0-0.5-0.3-0.5-0.7c0-0.4,0.2-0.7,0.5-0.7s0.5,0.3,0.5,0.7C6.1,5.7,5.8,6.1,5.6,6.1z"/></symbol>
    <symbol id="img-os-hold" 	viewBox="0 0 16 16"><path d="M13.1,15.9c0,0-0.1,0.1-0.1,0.1c0,0-0.1,0-0.2,0c0,0,0,0-0.1,0l-0.7-0.7l-0.7,0.7c-0.1,0.1-0.2,0.1-0.3,0 l-0.7-0.7l-0.7,0.7c-0.1,0.1-0.2,0.1-0.3,0l-0.7-0.7l-0.7,0.7c-0.1,0.1-0.2,0.1-0.3,0l-0.7-0.7l-0.7,0.7c-0.1,0.1-0.2,0.1-0.3,0 l-0.7-0.7l-0.7,0.7c-0.1,0.1-0.2,0.1-0.3,0l-0.7-0.7l-0.7,0.7c0,0,0,0-0.1,0c-0.1,0-0.1,0-0.2,0c0,0-0.1-0.1-0.1-0.1 c0,0,0-0.1,0-0.1V3.2c0,0,0,0,0,0c0,0,0,0,0,0c0-0.3,0.3-0.6,0.6-0.6c0,0,0,0,0,0h2.1V3H3.5c0,0,0,0,0,0C3.4,3,3.3,3.1,3.3,3.2 c0,0,0,0,0,0c0,0,0,0,0,0v12.1l0.5-0.5c0,0,0.1-0.1,0.1-0.1s0.1,0,0.1,0.1l0.7,0.7l0.7-0.7c0,0,0.1-0.1,0.1-0.1c0.1,0,0.1,0,0.1,0.1 l0.7,0.7L7,14.8c0,0,0.1-0.1,0.1-0.1c0.1,0,0.1,0,0.1,0.1L8,15.5l0.7-0.7c0,0,0.1-0.1,0.1-0.1c0.1,0,0.1,0,0.1,0.1l0.7,0.7l0.7-0.7 c0,0,0.1-0.1,0.1-0.1c0.1,0,0.1,0,0.1,0.1l0.7,0.7l0.7-0.7c0,0,0.1-0.1,0.1-0.1c0.1,0,0.1,0,0.1,0.1l0.5,0.5V3.2 c0-0.1-0.1-0.2-0.2-0.2h-2.1V2.6h2.1c0.3,0,0.6,0.3,0.6,0.6L13.1,15.9C13.1,15.8,13.1,15.9,13.1,15.9z M9.8,1.3l0.9-1H9.9V0h1.3v0.2 l-0.9,1h0.9v0.3H9.8L9.8,1.3L9.8,1.3z M10.9,9.8c0.1,0,0.2,0.1,0.2,0.2s-0.1,0.2-0.2,0.2H9.8c-0.1,0-0.2-0.1-0.2-0.2 c0-0.1,0.1-0.2,0.2-0.2H10.9z M9.8,12.1c0,0.1-0.1,0.2-0.2,0.2H6.4c-0.1,0-0.2-0.1-0.2-0.2c0-0.1,0.1-0.2,0.2-0.2h3.2 C9.7,11.9,9.8,12,9.8,12.1z M7,3.4l1.5-1.8H7V1.1h2.2v0.4L7.7,3.4h1.5v0.5H7V3.4z M6.2,10.2H5.1c-0.1,0-0.2-0.1-0.2-0.2 c0-0.1,0.1-0.2,0.2-0.2h1.1c0.1,0,0.2,0.1,0.2,0.2C6.4,10.1,6.3,10.2,6.2,10.2z"/></symbol>
    <symbol id="img-os-cancel"	viewBox="0 0 16 16"><path d="M14,15.9c0,0.1-0.1,0.1-0.1,0.1c-0.1,0-0.1,0-0.2,0c0,0-0.1,0-0.1-0.1l-0.8-0.8l-0.8,0.8 c-0.1,0.1-0.2,0.1-0.3,0l-0.8-0.8l-0.8,0.8C10,16,9.9,16,9.8,15.9L9,15.1l-0.8,0.8c-0.1,0.1-0.2,0.1-0.3,0L7,15.1l-0.8,0.8 C6.1,16,6,16,5.9,15.9l-0.8-0.8l-0.8,0.8C4.2,16,4,16,3.9,15.9l-0.8-0.8l-0.8,0.8c0,0,0,0-0.1,0.1c-0.1,0-0.1,0-0.2,0 C2,16,2,15.9,2,15.9c0,0,0-0.1,0-0.1v-15c0,0,0,0,0,0c0,0,0,0,0,0C1.9,0.3,2.3,0,2.7,0c0,0,0,0,0,0h10.7c0.4,0,0.7,0.3,0.7,0.7 L14,15.9C14.1,15.8,14.1,15.8,14,15.9z M13.6,0.7c0-0.1-0.1-0.2-0.2-0.2H2.7c0,0,0,0,0,0c-0.1,0-0.2,0.1-0.2,0.2c0,0,0,0,0,0 c0,0,0,0,0,0v14.4L3,14.6c0,0,0.1-0.1,0.2-0.1c0.1,0,0.1,0,0.2,0.1l0.8,0.8l0.8-0.8c0,0,0.1-0.1,0.2-0.1c0.1,0,0.1,0,0.2,0.1 l0.8,0.8l0.8-0.8c0,0,0.1-0.1,0.2-0.1c0.1,0,0.1,0,0.2,0.1L8,15.4l0.8-0.8c0,0,0.1-0.1,0.2-0.1c0.1,0,0.1,0,0.2,0.1l0.8,0.8l0.8-0.8 c0,0,0.1-0.1,0.2-0.1c0.1,0,0.1,0,0.2,0.1l0.8,0.8l0.8-0.8c0,0,0.1-0.1,0.2-0.1c0.1,0,0.1,0,0.2,0.1l0.6,0.6L13.6,0.7L13.6,0.7z M7.6,9.3h0.8v0.9H7.6V9.3z M7.6,5.8h0.8v2.8H7.6V5.8z"/></symbol>
    <symbol id="img-bill" 		viewBox="0 0 16 16"><path d="M12.9,5.4H9.2V0.5C9.2,0.2,9,0,8.7,0h-7C1.4,0,1.2,0.2,1.2,0.5v13.5c0,0,0,0,0,0c0,1.1,0.9,1.9,1.9,1.9h7 c1.1,0,1.9-0.9,1.9-1.9v-2.9h2.3c0.3,0,0.5-0.2,0.5-0.5V7.3C14.8,6.2,13.9,5.4,12.9,5.4z M3.1,14.9c-0.5,0-0.9-0.4-0.9-0.9 c0,0,0,0,0,0v-13h5.9v13c0,0.3,0.1,0.6,0.2,0.9H3.1z M11,7.3C11,7.3,11,7.3,11,7.3l0,6.8c0,0.5-0.4,0.9-0.9,0.9 c-0.5,0-0.9-0.4-0.9-0.9V6.4h2C11,6.7,11,7,11,7.3z M13.8,10.2H12V7.3c0,0,0,0,0,0c0-0.5,0.4-0.9,0.9-0.9c0.5,0,0.9,0.4,0.9,0.9 V10.2z M6.5,3.1H3.9c-0.3,0-0.5,0.2-0.5,0.5c0,0.3,0.2,0.5,0.5,0.5h2.5C6.8,4.1,7,3.9,7,3.6C7,3.3,6.8,3.1,6.5,3.1z M6.5,7H3.9 C3.6,7,3.4,7.2,3.4,7.5c0,0.3,0.2,0.5,0.5,0.5h2.5C6.8,8.1,7,7.8,7,7.5C7,7.2,6.8,7,6.5,7z M6.5,10.9H3.9c-0.3,0-0.5,0.2-0.5,0.5 c0,0.3,0.2,0.5,0.5,0.5h2.5C6.8,12,7,11.8,7,11.5C7,11.2,6.8,10.9,6.5,10.9z"/></symbol>
    <symbol id="img-track" 		viewBox="0 0 16 16"><path d="M6.6,5.4C6.8,5.3,6.9,5,6.8,4.7C6.7,4.5,6.4,4.4,6.1,4.5C4.4,5.4,3.7,7.4,4.1,9c0.5,1.9,2.2,3,3.8,3 c0.8,0,1.6-0.2,2.2-0.6c1.4-0.9,2.2-2.6,1.7-4.5c-0.1-0.3-0.4-0.4-0.6-0.3c-0.3,0.1-0.4,0.4-0.3,0.6c0.2,0.5,0.1,1.1,0,1.7 c-0.4,1.4-1.8,2.3-3.2,2.1c-1.1-0.1-2.2-1-2.5-2.1C4.7,7.3,5.6,5.9,6.6,5.4z M13.8,2.5c-0.1-0.2-0.2-0.3-0.3-0.4C12,0.8,10,0,7.9,0 c0,0-0.1,0-0.1,0C7.6,0.1,7.5,0.3,7.5,0.5c0,2.5,0,5,0,7.4c0,0.2,0.1,0.4,0.3,0.5c0.2,0.1,0.4,0,0.6-0.1l5.3-5.3 C13.8,2.9,13.8,2.7,13.8,2.5z M14.8,3.8c-0.1-0.2-0.5-0.3-0.7-0.1c-0.2,0.1-0.3,0.5-0.1,0.7C14.7,5.5,15,7,15,8.4 c-0.2,2.8-2.1,5.4-4.9,6.3c-3,0.9-6.8-0.3-8.4-3.7C1,9.6,0.9,8.1,1.1,6.7c0.6-2.9,2.8-4.9,5.2-5.4c0.1,0,0.2-0.1,0.3-0.2 c0.2-0.2,0.2-0.5,0-0.7C6.6,0.2,6.3,0.1,6.1,0.2C4.2,0.7,1.9,2,0.6,4.8c-1,2.2-1.4,6.8,2.6,9.7c1.2,0.9,2.6,1.4,4.1,1.5 c2.8,0.2,5.7-1.1,7.4-3.7C16,10.3,16.8,6.9,14.8,3.8z"/></symbol>
    <symbol id="img-facebook" 	viewBox="0 0 16 16"><path d="M9.4,16V8.7H12l0.4-2.8H9.4V4c0-0.8,0.2-1.4,1.5-1.4h1.6V0.1c-0.3,0-1.3-0.1-2.4-0.1 c-2.4,0-4,1.3-4,3.7v2.1H3.5v2.8h2.7V16H9.4L9.4,16z"/></symbol>
    <symbol id="img-twitter" 	viewBox="0 0 20 16"><path d="M9.9,5c0,0-5,0-8.5-4.2c0,0-1.9,2.9,1.3,5.4c0,0-1,0-1.9-0.5c0,0-0.2,3,3.2,4c0,0-1,0.3-1.8,0 c0,0,0.5,2.5,3.8,2.8c0,0-2.6,2.1-6.1,1.7c0,0,2.8,1.9,6,1.8C18.1,15.6,18,4,18,4s1.6-1.3,2-2.1c0,0-1.6,0.6-2.3,0.6 c0,0,1.3-0.9,1.8-2.2c0,0-1.8,0.9-2.6,0.9c0,0-1-1.3-3-1.3C11.9,0,9.3,1.6,9.9,5z"/></symbol>
    <symbol id="img-googleplus" viewBox="0 0 25 16"><path d="M21.2,9.9v4.4h-2.9V9.9h-3.9V7.1h3.8V2.9h2.9v4.2H25v2.8L21.2,9.9L21.2,9.9z M6.7,16C6.2,16,0.1,16.1,0,8.6V7.6 C0,6.8-0.1,0,6.4,0c3.7,0,5.7,1.8,6.1,5.2H9.5C9.2,3.4,8.2,2.6,6.6,2.6c-4.1,0-3.3,5.9-3.3,5.9c0,1.6,0.3,2.9,0.9,3.7 c1.2,1.7,4.2,1.5,5.3,0.5V10H6.6V7.6h6.1v6.2C11.5,15.2,9.2,16,6.7,16z"/></symbol>
    <symbol id="img-linkedin" 	viewBox="0 0 16 16"><path d="M14.9,16H1.1C0.5,16,0,15.5,0,14.9V1.1C0,0.5,0.5,0,1.1,0h13.8C15.5,0,16,0.5,16,1.1v13.8 C16,15.5,15.5,16,14.9,16z M2.3,13.7h2.4V6H2.3V13.7z M3.6,2.2c-0.7,0-1.3,0.6-1.3,1.3s0.6,1.3,1.3,1.3c0.7,0,1.3-0.6,1.3-1.3 S4.3,2.2,3.6,2.2z M13.7,10.2c0-3.7-1-4.3-2.8-4.3c-1.4,0-2.1,0.7-2.3,0.9V6H6.3v7.7h2.3V9.9c0-1.4,0.6-2,1.5-2 c0.8,0,1.2,0.7,1.2,2.3v3.5h2.4L13.7,10.2L13.7,10.2z"/></symbol>
    <symbol id="img-pinterest" 	viewBox="0 0 16 16"><path d="M8,16c-0.9,0-1.7-0.1-2.4-0.4c0.2-0.2,0.8-1.1,1-1.8c0.2-0.8,0.6-2.2,0.6-2.2s0.4,0.9,1.8,0.9 s4.1-1.4,4.1-5c0-1.7-1.4-4.5-5-4.5S3,5.5,3,7.8c0,2.3,1.7,3.1,1.7,3.1L5,9.8c0,0-0.7-0.6-0.7-2S5.3,4.4,8,4.4s3.3,2.1,3.3,3.3 s-0.6,3.6-2.6,3.6c-0.9,0-1.2-0.6-1.2-1.2s0.7-2.4,0.7-3S7.9,6,7.3,6S5.8,6.7,5.8,8c0,0.8,0.3,1.2,0.3,1.2s-1,4.1-1,4.9 c0,0.5,0,1.1,0.1,1.4C2.1,14.3,0,11.4,0,8c0-4.4,3.6-8,8-8s8,3.6,8,8S12.4,16,8,16z"/></symbol>
    <symbol id="img-whatsapp" 	viewBox="0 0 16 16"><path d="M8.1,15.6c-1.4,0-2.7-0.4-3.8-1L0,16l1.4-4.2c-0.7-1.2-1.1-2.6-1.1-4C0.3,3.5,3.8,0,8.1,0 C12.5,0,16,3.5,16,7.8C16,12.1,12.5,15.6,8.1,15.6z M8.1,1.2c-3.6,0-6.6,2.9-6.6,6.6c0,1.4,0.5,2.8,1.3,3.8L2,14.1l2.5-0.8 c1,0.7,2.3,1.1,3.6,1.1c3.6,0,6.6-2.9,6.6-6.6C14.7,4.2,11.8,1.2,8.1,1.2z M10.3,11.4c-2.3-0.1-5.9-2.9-6-5.4 C4.2,4.3,5.6,4.2,5.9,4.2c0.4,0,0.4,0.6,1,1.7c0.2,0.4-0.8,1.1-0.5,1.4c0.1,0.2,0.5,0.8,1.1,1.3c0.9,0.9,1.7,1,1.9,0.9 c0.4-0.1,0.5-0.8,1-0.9c0.2,0,1.8,0.7,1.8,0.9C12.2,10.9,11,11.5,10.3,11.4z"/></symbol>
    <symbol id="img-tumblr" 	viewBox="0 0 16 16"><path d="M3.4,4.4c0,0,3.1-1.2,3.1-4.4H9v4h2.9v2.8H9c0,0,0,4,0,4.9c0,2.1,2.8,1.2,2.8,1.2l0.8,2.2 c0,0-1.3,0.9-2.9,0.9c-1.6,0-4.4-1-4.4-4.4s0-4.8,0-4.8H3.4L3.4,4.4L3.4,4.4z"/></symbol>

    <!--
	Ícones opcionais
	* Caso exclua um destes sprites, lembre-se de apagar a chamada nas inserções
	-->
    <symbol id="i-menu"     viewBox="0 0 16 16"><path d="M14.4,3.2H1.6C0.7,3.2,0,2.5,0,1.6v0C0,0.7,0.7,0,1.6,0l12.8,0C15.3,0,16,0.7,16,1.6v0 C16,2.5,15.3,3.2,14.4,3.2z M16,14.4L16,14.4c0-0.9-0.7-1.6-1.6-1.6H1.6c-0.9,0-1.6,0.7-1.6,1.6v0C0,15.3,0.7,16,1.6,16h12.8 C15.3,16,16,15.3,16,14.4z M16,8L16,8c0-0.9-0.7-1.6-1.6-1.6H1.6C0.7,6.4,0,7.1,0,8v0c0,0.9,0.7,1.6,1.6,1.6h12.8 C15.3,9.6,16,8.9,16,8z"/></symbol>
    <symbol id="i-search"   viewBox="0 0 16 16"><path d="M6.9,13.9c1.7,0,3.3-0.6,4.5-1.6l3.6,3.6c0.2,0.2,0.6,0.2,0.9,0c0.2-0.2,0.2-0.6,0-0.9l-3.6-3.6 c1-1.2,1.6-2.8,1.6-4.5c0-3.8-3.1-6.9-6.9-6.9S0,3.1,0,6.9S3.1,13.9,6.9,13.9z M6.9,1.2c3.2,0,5.7,2.6,5.7,5.7c0,1.6-0.6,3-1.7,4.1 c0,0,0,0,0,0c0,0,0,0,0,0c-1,1-2.5,1.7-4.1,1.7c-3.2,0-5.7-2.6-5.7-5.7S3.8,1.2,6.9,1.2z"/></symbol>
    <symbol id="i-cart"     viewBox="0 0 16 16"><path d="M15.2,15.5l-0.9-11c0-0.2-0.2-0.4-0.4-0.4h-2V3.9C11.9,1.8,10.2,0,8,0S4.1,1.8,4.1,3.9v0.2h-2 c-0.2,0-0.4,0.2-0.4,0.4L0.8,15.6c0,0.1,0,0.2,0.1,0.3C1,16,1.1,16,1.2,16h13.7c0,0,0,0,0,0C15,16,15.2,15.8,15.2,15.5 C15.2,15.6,15.2,15.5,15.2,15.5z M4.9,3.9c0-1.7,1.4-3.1,3.1-3.1s3.1,1.4,3.1,3.1v0.2H4.9V3.9z M1.6,15.2L2.5,4.9h1.6v0.6 C3.8,5.7,3.7,5.9,3.7,6.2C3.7,6.7,4,7,4.5,7s0.8-0.4,0.8-0.8c0-0.3-0.2-0.6-0.4-0.7V4.9h6.3v0.6c-0.2,0.1-0.4,0.4-0.4,0.7 c0,0.4,0.4,0.8,0.8,0.8s0.8-0.4,0.8-0.8c0-0.3-0.2-0.6-0.4-0.7V4.9h1.6l0.9,10.3H1.6L1.6,15.2z"/></symbol>
    <symbol id="i-wish"     viewBox="0 0 16 16"><path d="M2,9.2C0.6,7.6,0,5.9,0,4.4C0,1.7,1.5,0,3.8,0C6,0,6.7,1.1,8,2.8C9.3,1.1,10,0,12.2,0 C14.5,0,16,1.7,16,4.4c0,1.5-0.6,3.2-2,4.8L8,16L2,9.2z"/></symbol>
    <symbol id="i-user"     viewBox="0 0 16 16">
        <path class="female" d="M8,0C6.2,0,3.7,1.2,3.7,3.9v1.5C3.1,5.4,2.7,6,2.7,6.6s0.5,1.1,1.1,1.2c-0.1,2.4-0.8,5.6-2.4,6 C1.6,15,2.6,16,3.4,16h9.3c0.5,0,1.8-0.6,2.3-2.2c-1.7-0.3-2.7-3.7-2.7-6c0.6-0.1,1.1-0.6,1.1-1.2s-0.5-1.1-1.1-1.2V3.9 C12.3,1.9,11.4,0,8,0z M8.7,13.3c0,0.6-1.5,0.5-1.5,0v-0.9c0.1,0.1,1.3,0.1,1.5,0V13.3z M12.6,6.6c0,0.3-0.2,0.6-0.6,0.6 c-0.1,0-0.5,0-0.5,0v1.4c0,1.8-1.4,3.2-3.2,3.2H7.6c-1.8,0-3.2-1.4-3.2-3.2V7.1l-0.5,0c-0.3,0-0.6-0.2-0.6-0.6S3.6,6,3.9,6l0.5,0 V4.3c2.9,0.6,3.7-1,4.7-1c1,0,1.6,1.8,1.6,1.8c0.8-0.4,0.8-0.8,0.8-1V6c0,0,0.5,0,0.5,0C12.4,6,12.6,6.3,12.6,6.6z M8,8.2 c0.3,0,0.5-0.2,0.5-0.4c0-0.2-0.2-0.4-0.5-0.4c-0.3,0-0.5,0.2-0.5,0.4C7.5,8,7.7,8.2,8,8.2z M10,6C9.7,6,9.4,6.3,9.4,6.6 S9.7,7.1,10,7.1c0.3,0,0.5-0.2,0.5-0.5S10.3,6,10,6z M6.6,6.6C6.6,6.3,6.3,6,6,6S5.5,6.3,5.5,6.6S5.7,7.1,6,7.1S6.6,6.9,6.6,6.6z M10.1,8.8c-0.2-0.1-0.4,0-0.4,0.2C9.3,9.6,8.7,10,8,10c-0.7,0-1.3-0.4-1.6-1C6.3,8.8,6.1,8.7,5.9,8.8C5.7,8.8,5.7,9,5.7,9.2 C6.2,10.1,7,10.7,8,10.7c1,0,1.8-0.6,2.3-1.4C10.3,9,10.3,8.8,10.1,8.8z"/>
        <path class="male" d="M8,0C6.2,0,3.7,1.2,3.7,3.9v1.5C3.1,5.4,2.7,6,2.7,6.6s0.5,1.1,1.1,1.2v0.7c0,1.8,1.2,3.3,2.9,3.8 v0.3c-2.8,0-3.8,3.4-3.8,3.4h10.5c0,0-1.2-3.4-3.8-3.4v-0.3c1.6-0.5,2.9-2,2.9-3.8V7.8c0.6-0.1,1.1-0.6,1.1-1.2s-0.5-1.1-1.1-1.2 V5.1c2-0.4,2.2-1.4,2.2-1.8C12.8,3.6,11.4,0,8,0z M8.7,13.3c0,0.6-1.5,0.5-1.5,0v-0.9c0.1,0.1,1.3,0.1,1.5,0V13.3z M12.6,6.6 c0,0.3-0.2,0.6-0.6,0.6c-0.1,0-0.5,0-0.5,0v1.4c0,1.8-1.4,3.2-3.2,3.2H7.6c-1.8,0-3.2-1.4-3.2-3.2V7.1l-0.5,0 c-0.3,0-0.6-0.2-0.6-0.6S3.6,6,3.9,6l0.5,0l0.8-2.2C6,4.3,7.8,5.5,11.6,5.2V6c0,0,0.5,0,0.5,0C12.4,6,12.6,6.3,12.6,6.6z M8,8.2 c0.3,0,0.5-0.2,0.5-0.4c0-0.2-0.2-0.4-0.5-0.4c-0.3,0-0.5,0.2-0.5,0.4C7.5,8,7.7,8.2,8,8.2z M10,6C9.7,6,9.4,6.3,9.4,6.6 S9.7,7.1,10,7.1c0.3,0,0.5-0.2,0.5-0.5S10.3,6,10,6z M6.6,6.6C6.6,6.3,6.3,6,6,6S5.5,6.3,5.5,6.6S5.7,7.1,6,7.1S6.6,6.9,6.6,6.6z M10.1,8.8c-0.2-0.1-0.4,0-0.4,0.2C9.3,9.6,8.7,10,8,10c-0.7,0-1.3-0.4-1.6-1C6.3,8.8,6.1,8.7,5.9,8.8C5.7,8.8,5.7,9,5.7,9.2 C6.2,10.1,7,10.7,8,10.7c1,0,1.8-0.6,2.3-1.4C10.3,9,10.3,8.8,10.1,8.8z"/>
    </symbol>

    <!-- Tema Grupo Premium -->
    <symbol viewBox="0 0 25 21" id="z-cart"><path d="M21.453 13.137L24.34 4.5c.144-.414.035-.664-.082-.828-.297-.422-.914-.426-1.031-.426L6.918 3.242 6.48 1.18C6.363.691 6.016.226 5.316.226H.734C.258.226 0 .449 0 .894v1.192c0 .429.258.539.75.539h3.871l2.961 12.574c-.473.5-.727 1.227-.727 1.902 0 1.493 1.188 2.868 2.704 2.868 1.433 0 2.507-1.344 2.679-2.141h5.77c.172.797 1.043 2.172 2.68 2.172 1.488 0 2.703-1.293 2.703-2.781 0-1.481-.903-2.793-2.688-2.793-.746 0-1.625.402-2.035 1h-7.09c-.512-.801-1.215-1.047-1.926-1.075l-.097-.523h10.781c.816 0 .973-.297 1.117-.691zm-.746 3.035a1.016 1.016 0 110 2.032 1.016 1.016 0 010-2.032zm-10.145 1.015a1.027 1.027 0 11-2.055.001 1.027 1.027 0 012.055-.001zm0 0"/></symbol>
    <symbol viewBox="0 0 101.5 64" id="z-down"><path d="M56.6 61.6L99 19.1c1.7-1.6 2.5-3.5 2.5-5.9 0-2.3-.8-4.3-2.5-5.9l-4.9-5C92.6.8 90.6 0 88.3 0s-4.2.8-5.9 2.4L50.8 34.1 19.1 2.4C17.5.8 15.5 0 13.2 0 11 0 9 .8 7.3 2.4l-4.9 5C.8 9 0 10.9 0 13.2s.8 4.3 2.4 5.9l42.4 42.5c1.7 1.6 3.7 2.4 5.9 2.4 2.4 0 4.3-.8 5.9-2.4z"/></symbol>
    <symbol viewBox="0 0 20 16" id="z-menu"><g clip-path="url(#a)"><path d="M19.199.801c0-.481-.32-.801-.801-.801H.801C.32 0 0 .32 0 .801v1.597c0 .481.32.801.801.801h17.597c.481 0 .801-.32.801-.801zm0 6.398c0-.48-.32-.801-.801-.801H.801c-.481 0-.801.321-.801.801v1.602c0 .48.32.801.801.801h17.597c.481 0 .801-.321.801-.801zm0 6.403c0-.481-.32-.801-.801-.801H.801c-.481 0-.801.32-.801.801v1.597c0 .481.32.801.801.801h17.597c.481 0 .801-.32.801-.801zm0 0"/></g></symbol>
    <symbol viewBox="0 0 65 103" id="z-next"><path d="M61.594 45.357L19.098 2.928C17.535 1.275 15.578.451 13.234.451c-2.347 0-4.304.828-5.867 2.477l-4.953 4.89C.805 9.424 0 11.381 0 13.682c0 2.261.805 4.238 2.414 5.933l31.676 31.61L2.41 82.904C.805 84.51 0 86.467 0 88.768c0 2.261.805 4.238 2.41 5.933l4.957 4.887c1.606 1.609 3.563 2.41 5.863 2.41 2.305 0 4.262-.801 5.868-2.41l42.496-42.43c1.609-1.695 2.414-3.672 2.414-5.933 0-2.301-.805-4.258-2.414-5.868zm0 0"/></symbol>
    <symbol viewBox="0 0 480.56 480.56" id="z-phone"><path d="M365.354 317.9c-15.7-15.5-35.3-15.5-50.9 0-11.9 11.8-23.8 23.6-35.5 35.6-3.2 3.3-5.9 4-9.8 1.8-7.7-4.2-15.9-7.6-23.3-12.2-34.5-21.7-63.4-49.6-89-81-12.7-15.6-24-32.3-31.9-51.1-1.6-3.8-1.3-6.3 1.8-9.4 11.9-11.5 23.5-23.3 35.2-35.1 16.3-16.4 16.3-35.6-.1-52.1-9.3-9.4-18.6-18.6-27.9-28-9.6-9.6-19.1-19.3-28.8-28.8-15.7-15.3-35.3-15.3-50.9.1-12 11.8-23.5 23.9-35.7 35.5-11.3 10.7-17 23.8-18.2 39.1-1.9 24.9 4.2 48.4 12.8 71.3 17.6 47.4 44.4 89.5 76.9 128.1 43.9 52.2 96.3 93.5 157.6 123.3 27.6 13.4 56.2 23.7 87.3 25.4 21.4 1.2 40-4.2 54.9-20.9 10.2-11.4 21.7-21.8 32.5-32.7 16-16.2 16.1-35.8.2-51.8-19-19.1-38.1-38.1-57.2-57.1zm-19.1-79.7l36.9-6.3c-5.8-33.9-21.8-64.6-46.1-89-25.7-25.7-58.2-41.9-94-46.9l-5.2 37.1c27.7 3.9 52.9 16.4 72.8 36.3 18.8 18.8 31.1 42.6 35.6 68.8zm57.7-160.4c-42.6-42.6-96.5-69.5-156-77.8l-5.2 37.1c51.4 7.2 98 30.5 134.8 67.2 34.9 34.9 57.8 79 66.1 127.5l36.9-6.3c-9.7-56.2-36.2-107.2-76.6-147.7z"/></symbol>
    <symbol viewBox="0 0 65 103" id="z-prev"><path d="M2.4 57.1l42.5 42.4c1.6 1.7 3.5 2.5 5.9 2.5 2.3 0 4.3-.8 5.9-2.5l5-4.9c1.6-1.6 2.4-3.6 2.4-5.9 0-2.3-.8-4.2-2.4-5.9L29.9 51.2l31.7-31.7c1.6-1.6 2.4-3.6 2.4-5.9 0-2.3-.8-4.2-2.4-5.9l-5-4.9C55 1.2 53 .4 50.7.4c-2.3 0-4.3.8-5.9 2.4L2.4 45.3C.8 47 0 49 0 51.2c0 2.3.8 4.3 2.4 5.9z"/></symbol>
    <symbol viewBox="0 0 19 19" id="z-search"><path d="M12.857 8.143c0 2.757-2.243 5-5 5s-5-2.243-5-5 2.243-5 5-5 5 2.243 5 5zm5.714 9.286c0-.38-.156-.748-.413-1.005l-3.828-3.828a7.84 7.84 0 001.384-4.453A7.854 7.854 0 007.857.286 7.854 7.854 0 000 8.143 7.854 7.854 0 007.857 16a7.84 7.84 0 004.453-1.384l3.828 3.817a1.4 1.4 0 001.005.424c.781 0 1.428-.647 1.428-1.428z"/></symbol>
    <symbol viewBox="0 0 401 430" id="z-user"><path d="M200.098 242.441C71.053 242.441 0 303.567 0 414.327 0 423.208 6.792 430 15.674 430h368.848c8.882 0 15.674-6.792 15.674-15.673 0-110.76-71.053-171.886-200.098-171.886m0-22.988c57.469 0 103.967-50.677 103.967-112.849C304.065 46 259.135.547 200.098.547S96.131 46 96.131 106.604c0 62.172 46.498 112.849 103.967 112.849"/></symbol>
</svg>